G04 #@! TF.GenerationSoftware,KiCad,Pcbnew,(5.1.5)-3*
G04 #@! TF.CreationDate,2020-03-24T20:07:28-04:00*
G04 #@! TF.ProjectId,ADS1100,41445331-3130-4302-9e6b-696361645f70,rev?*
G04 #@! TF.SameCoordinates,Original*
G04 #@! TF.FileFunction,Legend,Top*
G04 #@! TF.FilePolarity,Positive*
%FSLAX46Y46*%
G04 Gerber Fmt 4.6, Leading zero omitted, Abs format (unit mm)*
G04 Created by KiCad (PCBNEW (5.1.5)-3) date 2020-03-24 20:07:28*
%MOMM*%
%LPD*%
G04 APERTURE LIST*
%ADD10C,0.150000*%
%ADD11C,0.120000*%
%ADD12C,0.025400*%
%ADD13C,0.010000*%
%ADD14C,0.100000*%
%ADD15C,0.398780*%
%ADD16C,0.254000*%
%ADD17C,0.076200*%
%ADD18C,0.127000*%
G04 APERTURE END LIST*
D10*
X201483980Y-53490404D02*
X201483980Y-53395166D01*
X201531600Y-53299928D01*
X201579219Y-53252309D01*
X201674457Y-53204690D01*
X201864933Y-53157071D01*
X202103028Y-53157071D01*
X202293504Y-53204690D01*
X202388742Y-53252309D01*
X202436361Y-53299928D01*
X202483980Y-53395166D01*
X202483980Y-53490404D01*
X202436361Y-53585642D01*
X202388742Y-53633261D01*
X202293504Y-53680880D01*
X202103028Y-53728500D01*
X201864933Y-53728500D01*
X201674457Y-53680880D01*
X201579219Y-53633261D01*
X201531600Y-53585642D01*
X201483980Y-53490404D01*
X202388742Y-52728500D02*
X202436361Y-52680880D01*
X202483980Y-52728500D01*
X202436361Y-52776119D01*
X202388742Y-52728500D01*
X202483980Y-52728500D01*
X201483980Y-52347547D02*
X201483980Y-51680880D01*
X202483980Y-52109452D01*
X201483980Y-51395166D02*
X201483980Y-50776119D01*
X201864933Y-51109452D01*
X201864933Y-50966595D01*
X201912552Y-50871357D01*
X201960171Y-50823738D01*
X202055409Y-50776119D01*
X202293504Y-50776119D01*
X202388742Y-50823738D01*
X202436361Y-50871357D01*
X202483980Y-50966595D01*
X202483980Y-51252309D01*
X202436361Y-51347547D01*
X202388742Y-51395166D01*
X201483980Y-49871357D02*
X201483980Y-50347547D01*
X201960171Y-50395166D01*
X201912552Y-50347547D01*
X201864933Y-50252309D01*
X201864933Y-50014214D01*
X201912552Y-49918976D01*
X201960171Y-49871357D01*
X202055409Y-49823738D01*
X202293504Y-49823738D01*
X202388742Y-49871357D01*
X202436361Y-49918976D01*
X202483980Y-50014214D01*
X202483980Y-50252309D01*
X202436361Y-50347547D01*
X202388742Y-50395166D01*
X201483980Y-49204690D02*
X201483980Y-49109452D01*
X201531600Y-49014214D01*
X201579219Y-48966595D01*
X201674457Y-48918976D01*
X201864933Y-48871357D01*
X202103028Y-48871357D01*
X202293504Y-48918976D01*
X202388742Y-48966595D01*
X202436361Y-49014214D01*
X202483980Y-49109452D01*
X202483980Y-49204690D01*
X202436361Y-49299928D01*
X202388742Y-49347547D01*
X202293504Y-49395166D01*
X202103028Y-49442785D01*
X201864933Y-49442785D01*
X201674457Y-49395166D01*
X201579219Y-49347547D01*
X201531600Y-49299928D01*
X201483980Y-49204690D01*
X202483980Y-47680880D02*
X201817314Y-47680880D01*
X201483980Y-47680880D02*
X201531600Y-47728500D01*
X201579219Y-47680880D01*
X201531600Y-47633261D01*
X201483980Y-47680880D01*
X201579219Y-47680880D01*
X201817314Y-47204690D02*
X202483980Y-47204690D01*
X201912552Y-47204690D02*
X201864933Y-47157071D01*
X201817314Y-47061833D01*
X201817314Y-46918976D01*
X201864933Y-46823738D01*
X201960171Y-46776119D01*
X202483980Y-46776119D01*
D11*
X203301600Y-59563000D02*
X203301600Y-40894000D01*
X208153000Y-59563000D02*
X202715179Y-59563000D01*
X208153000Y-40894000D02*
X202715179Y-40894000D01*
X203301600Y-40894000D02*
X203888021Y-42020504D01*
X203301600Y-40894000D02*
X202715179Y-42020504D01*
X203301600Y-59563000D02*
X203888021Y-58436496D01*
X203301600Y-59563000D02*
X202715179Y-58436496D01*
D10*
X215051095Y-63130180D02*
X215146333Y-63130180D01*
X215241571Y-63177800D01*
X215289190Y-63225419D01*
X215336809Y-63320657D01*
X215384428Y-63511133D01*
X215384428Y-63749228D01*
X215336809Y-63939704D01*
X215289190Y-64034942D01*
X215241571Y-64082561D01*
X215146333Y-64130180D01*
X215051095Y-64130180D01*
X214955857Y-64082561D01*
X214908238Y-64034942D01*
X214860619Y-63939704D01*
X214813000Y-63749228D01*
X214813000Y-63511133D01*
X214860619Y-63320657D01*
X214908238Y-63225419D01*
X214955857Y-63177800D01*
X215051095Y-63130180D01*
X215813000Y-64034942D02*
X215860619Y-64082561D01*
X215813000Y-64130180D01*
X215765380Y-64082561D01*
X215813000Y-64034942D01*
X215813000Y-64130180D01*
X216432047Y-63558752D02*
X216336809Y-63511133D01*
X216289190Y-63463514D01*
X216241571Y-63368276D01*
X216241571Y-63320657D01*
X216289190Y-63225419D01*
X216336809Y-63177800D01*
X216432047Y-63130180D01*
X216622523Y-63130180D01*
X216717761Y-63177800D01*
X216765380Y-63225419D01*
X216813000Y-63320657D01*
X216813000Y-63368276D01*
X216765380Y-63463514D01*
X216717761Y-63511133D01*
X216622523Y-63558752D01*
X216432047Y-63558752D01*
X216336809Y-63606371D01*
X216289190Y-63653990D01*
X216241571Y-63749228D01*
X216241571Y-63939704D01*
X216289190Y-64034942D01*
X216336809Y-64082561D01*
X216432047Y-64130180D01*
X216622523Y-64130180D01*
X216717761Y-64082561D01*
X216765380Y-64034942D01*
X216813000Y-63939704D01*
X216813000Y-63749228D01*
X216765380Y-63653990D01*
X216717761Y-63606371D01*
X216622523Y-63558752D01*
X217432047Y-63130180D02*
X217527285Y-63130180D01*
X217622523Y-63177800D01*
X217670142Y-63225419D01*
X217717761Y-63320657D01*
X217765380Y-63511133D01*
X217765380Y-63749228D01*
X217717761Y-63939704D01*
X217670142Y-64034942D01*
X217622523Y-64082561D01*
X217527285Y-64130180D01*
X217432047Y-64130180D01*
X217336809Y-64082561D01*
X217289190Y-64034942D01*
X217241571Y-63939704D01*
X217193952Y-63749228D01*
X217193952Y-63511133D01*
X217241571Y-63320657D01*
X217289190Y-63225419D01*
X217336809Y-63177800D01*
X217432047Y-63130180D01*
X218384428Y-63130180D02*
X218479666Y-63130180D01*
X218574904Y-63177800D01*
X218622523Y-63225419D01*
X218670142Y-63320657D01*
X218717761Y-63511133D01*
X218717761Y-63749228D01*
X218670142Y-63939704D01*
X218622523Y-64034942D01*
X218574904Y-64082561D01*
X218479666Y-64130180D01*
X218384428Y-64130180D01*
X218289190Y-64082561D01*
X218241571Y-64034942D01*
X218193952Y-63939704D01*
X218146333Y-63749228D01*
X218146333Y-63511133D01*
X218193952Y-63320657D01*
X218241571Y-63225419D01*
X218289190Y-63177800D01*
X218384428Y-63130180D01*
X219336809Y-63130180D02*
X219432047Y-63130180D01*
X219527285Y-63177800D01*
X219574904Y-63225419D01*
X219622523Y-63320657D01*
X219670142Y-63511133D01*
X219670142Y-63749228D01*
X219622523Y-63939704D01*
X219574904Y-64034942D01*
X219527285Y-64082561D01*
X219432047Y-64130180D01*
X219336809Y-64130180D01*
X219241571Y-64082561D01*
X219193952Y-64034942D01*
X219146333Y-63939704D01*
X219098714Y-63749228D01*
X219098714Y-63511133D01*
X219146333Y-63320657D01*
X219193952Y-63225419D01*
X219241571Y-63177800D01*
X219336809Y-63130180D01*
X220860619Y-64130180D02*
X220860619Y-63463514D01*
X220860619Y-63130180D02*
X220813000Y-63177800D01*
X220860619Y-63225419D01*
X220908238Y-63177800D01*
X220860619Y-63130180D01*
X220860619Y-63225419D01*
X221336809Y-63463514D02*
X221336809Y-64130180D01*
X221336809Y-63558752D02*
X221384428Y-63511133D01*
X221479666Y-63463514D01*
X221622523Y-63463514D01*
X221717761Y-63511133D01*
X221765380Y-63606371D01*
X221765380Y-64130180D01*
D11*
X208153000Y-62407800D02*
X228473000Y-62407800D01*
X208153000Y-59563000D02*
X208153000Y-62994221D01*
X228473000Y-59563000D02*
X228473000Y-62994221D01*
X228473000Y-62407800D02*
X227346496Y-62994221D01*
X228473000Y-62407800D02*
X227346496Y-61821379D01*
X208153000Y-62407800D02*
X209279504Y-62994221D01*
X208153000Y-62407800D02*
X209279504Y-61821379D01*
X228346000Y-46101000D02*
X222758000Y-46101000D01*
D12*
X208960357Y-43606357D02*
X208833357Y-43424928D01*
X208742642Y-43606357D02*
X208742642Y-43225357D01*
X208887785Y-43225357D01*
X208924071Y-43243500D01*
X208942214Y-43261642D01*
X208960357Y-43297928D01*
X208960357Y-43352357D01*
X208942214Y-43388642D01*
X208924071Y-43406785D01*
X208887785Y-43424928D01*
X208742642Y-43424928D01*
X209268785Y-43588214D02*
X209232500Y-43606357D01*
X209159928Y-43606357D01*
X209123642Y-43588214D01*
X209105500Y-43551928D01*
X209105500Y-43406785D01*
X209123642Y-43370500D01*
X209159928Y-43352357D01*
X209232500Y-43352357D01*
X209268785Y-43370500D01*
X209286928Y-43406785D01*
X209286928Y-43443071D01*
X209105500Y-43479357D01*
X209413928Y-43352357D02*
X209504642Y-43606357D01*
X209595357Y-43352357D01*
X209740500Y-43570071D02*
X209758642Y-43588214D01*
X209740500Y-43606357D01*
X209722357Y-43588214D01*
X209740500Y-43570071D01*
X209740500Y-43606357D01*
X210194071Y-43497500D02*
X210375500Y-43497500D01*
X210157785Y-43606357D02*
X210284785Y-43225357D01*
X210411785Y-43606357D01*
X208697285Y-56179357D02*
X208824285Y-56560357D01*
X208951285Y-56179357D01*
X209223428Y-56542214D02*
X209187142Y-56560357D01*
X209114571Y-56560357D01*
X209078285Y-56542214D01*
X209060142Y-56505928D01*
X209060142Y-56360785D01*
X209078285Y-56324500D01*
X209114571Y-56306357D01*
X209187142Y-56306357D01*
X209223428Y-56324500D01*
X209241571Y-56360785D01*
X209241571Y-56397071D01*
X209060142Y-56433357D01*
X209404857Y-56560357D02*
X209404857Y-56306357D01*
X209404857Y-56378928D02*
X209423000Y-56342642D01*
X209441142Y-56324500D01*
X209477428Y-56306357D01*
X209513714Y-56306357D01*
X209622571Y-56542214D02*
X209658857Y-56560357D01*
X209731428Y-56560357D01*
X209767714Y-56542214D01*
X209785857Y-56505928D01*
X209785857Y-56487785D01*
X209767714Y-56451500D01*
X209731428Y-56433357D01*
X209677000Y-56433357D01*
X209640714Y-56415214D01*
X209622571Y-56378928D01*
X209622571Y-56360785D01*
X209640714Y-56324500D01*
X209677000Y-56306357D01*
X209731428Y-56306357D01*
X209767714Y-56324500D01*
X209949142Y-56560357D02*
X209949142Y-56306357D01*
X209949142Y-56179357D02*
X209931000Y-56197500D01*
X209949142Y-56215642D01*
X209967285Y-56197500D01*
X209949142Y-56179357D01*
X209949142Y-56215642D01*
X210185000Y-56560357D02*
X210148714Y-56542214D01*
X210130571Y-56524071D01*
X210112428Y-56487785D01*
X210112428Y-56378928D01*
X210130571Y-56342642D01*
X210148714Y-56324500D01*
X210185000Y-56306357D01*
X210239428Y-56306357D01*
X210275714Y-56324500D01*
X210293857Y-56342642D01*
X210312000Y-56378928D01*
X210312000Y-56487785D01*
X210293857Y-56524071D01*
X210275714Y-56542214D01*
X210239428Y-56560357D01*
X210185000Y-56560357D01*
X210475285Y-56306357D02*
X210475285Y-56560357D01*
X210475285Y-56342642D02*
X210493428Y-56324500D01*
X210529714Y-56306357D01*
X210584142Y-56306357D01*
X210620428Y-56324500D01*
X210638571Y-56360785D01*
X210638571Y-56560357D01*
X210729285Y-56596642D02*
X211019571Y-56596642D01*
X211019571Y-56596642D02*
X211309857Y-56596642D01*
X211309857Y-56596642D02*
X211600142Y-56596642D01*
X211600142Y-56596642D02*
X211890428Y-56596642D01*
X211890428Y-56596642D02*
X212180714Y-56596642D01*
X212180714Y-56596642D02*
X212471000Y-56596642D01*
X220455671Y-50614217D02*
X220582671Y-50995217D01*
X220709671Y-50614217D01*
X220836671Y-50995217D02*
X220836671Y-50741217D01*
X220836671Y-50614217D02*
X220818528Y-50632360D01*
X220836671Y-50650502D01*
X220854814Y-50632360D01*
X220836671Y-50614217D01*
X220836671Y-50650502D01*
X221018100Y-50741217D02*
X221018100Y-50995217D01*
X221018100Y-50777502D02*
X221036242Y-50759360D01*
X221072528Y-50741217D01*
X221126957Y-50741217D01*
X221163242Y-50759360D01*
X221181385Y-50795645D01*
X221181385Y-50995217D01*
X221362814Y-50850074D02*
X221653100Y-50850074D01*
X220303271Y-48279957D02*
X220430271Y-48660957D01*
X220557271Y-48279957D01*
X220684271Y-48660957D02*
X220684271Y-48406957D01*
X220684271Y-48279957D02*
X220666128Y-48298100D01*
X220684271Y-48316242D01*
X220702414Y-48298100D01*
X220684271Y-48279957D01*
X220684271Y-48316242D01*
X220865700Y-48406957D02*
X220865700Y-48660957D01*
X220865700Y-48443242D02*
X220883842Y-48425100D01*
X220920128Y-48406957D01*
X220974557Y-48406957D01*
X221010842Y-48425100D01*
X221028985Y-48461385D01*
X221028985Y-48660957D01*
X221210414Y-48515814D02*
X221500700Y-48515814D01*
X221355557Y-48660957D02*
X221355557Y-48370671D01*
X224672071Y-43733357D02*
X224672071Y-43352357D01*
X224817214Y-43352357D01*
X224853500Y-43370500D01*
X224871642Y-43388642D01*
X224889785Y-43424928D01*
X224889785Y-43479357D01*
X224871642Y-43515642D01*
X224853500Y-43533785D01*
X224817214Y-43551928D01*
X224672071Y-43551928D01*
X225107500Y-43733357D02*
X225071214Y-43715214D01*
X225053071Y-43697071D01*
X225034928Y-43660785D01*
X225034928Y-43551928D01*
X225053071Y-43515642D01*
X225071214Y-43497500D01*
X225107500Y-43479357D01*
X225161928Y-43479357D01*
X225198214Y-43497500D01*
X225216357Y-43515642D01*
X225234500Y-43551928D01*
X225234500Y-43660785D01*
X225216357Y-43697071D01*
X225198214Y-43715214D01*
X225161928Y-43733357D01*
X225107500Y-43733357D01*
X225361500Y-43479357D02*
X225434071Y-43733357D01*
X225506642Y-43551928D01*
X225579214Y-43733357D01*
X225651785Y-43479357D01*
X225942071Y-43715214D02*
X225905785Y-43733357D01*
X225833214Y-43733357D01*
X225796928Y-43715214D01*
X225778785Y-43678928D01*
X225778785Y-43533785D01*
X225796928Y-43497500D01*
X225833214Y-43479357D01*
X225905785Y-43479357D01*
X225942071Y-43497500D01*
X225960214Y-43533785D01*
X225960214Y-43570071D01*
X225778785Y-43606357D01*
X226123500Y-43733357D02*
X226123500Y-43479357D01*
X226123500Y-43551928D02*
X226141642Y-43515642D01*
X226159785Y-43497500D01*
X226196071Y-43479357D01*
X226232357Y-43479357D01*
X208742642Y-41630600D02*
X208924071Y-41630600D01*
X208706357Y-41739457D02*
X208833357Y-41358457D01*
X208960357Y-41739457D01*
X209087357Y-41739457D02*
X209087357Y-41358457D01*
X209178071Y-41358457D01*
X209232500Y-41376600D01*
X209268785Y-41412885D01*
X209286928Y-41449171D01*
X209305071Y-41521742D01*
X209305071Y-41576171D01*
X209286928Y-41648742D01*
X209268785Y-41685028D01*
X209232500Y-41721314D01*
X209178071Y-41739457D01*
X209087357Y-41739457D01*
X209450214Y-41721314D02*
X209504642Y-41739457D01*
X209595357Y-41739457D01*
X209631642Y-41721314D01*
X209649785Y-41703171D01*
X209667928Y-41666885D01*
X209667928Y-41630600D01*
X209649785Y-41594314D01*
X209631642Y-41576171D01*
X209595357Y-41558028D01*
X209522785Y-41539885D01*
X209486500Y-41521742D01*
X209468357Y-41503600D01*
X209450214Y-41467314D01*
X209450214Y-41431028D01*
X209468357Y-41394742D01*
X209486500Y-41376600D01*
X209522785Y-41358457D01*
X209613500Y-41358457D01*
X209667928Y-41376600D01*
X210030785Y-41739457D02*
X209813071Y-41739457D01*
X209921928Y-41739457D02*
X209921928Y-41358457D01*
X209885642Y-41412885D01*
X209849357Y-41449171D01*
X209813071Y-41467314D01*
X210393642Y-41739457D02*
X210175928Y-41739457D01*
X210284785Y-41739457D02*
X210284785Y-41358457D01*
X210248500Y-41412885D01*
X210212214Y-41449171D01*
X210175928Y-41467314D01*
X210629500Y-41358457D02*
X210665785Y-41358457D01*
X210702071Y-41376600D01*
X210720214Y-41394742D01*
X210738357Y-41431028D01*
X210756500Y-41503600D01*
X210756500Y-41594314D01*
X210738357Y-41666885D01*
X210720214Y-41703171D01*
X210702071Y-41721314D01*
X210665785Y-41739457D01*
X210629500Y-41739457D01*
X210593214Y-41721314D01*
X210575071Y-41703171D01*
X210556928Y-41666885D01*
X210538785Y-41594314D01*
X210538785Y-41503600D01*
X210556928Y-41431028D01*
X210575071Y-41394742D01*
X210593214Y-41376600D01*
X210629500Y-41358457D01*
X210992357Y-41358457D02*
X211028642Y-41358457D01*
X211064928Y-41376600D01*
X211083071Y-41394742D01*
X211101214Y-41431028D01*
X211119357Y-41503600D01*
X211119357Y-41594314D01*
X211101214Y-41666885D01*
X211083071Y-41703171D01*
X211064928Y-41721314D01*
X211028642Y-41739457D01*
X210992357Y-41739457D01*
X210956071Y-41721314D01*
X210937928Y-41703171D01*
X210919785Y-41666885D01*
X210901642Y-41594314D01*
X210901642Y-41503600D01*
X210919785Y-41431028D01*
X210937928Y-41394742D01*
X210956071Y-41376600D01*
X210992357Y-41358457D01*
X209023857Y-42336357D02*
X208806142Y-42336357D01*
X208915000Y-42336357D02*
X208915000Y-41955357D01*
X208878714Y-42009785D01*
X208842428Y-42046071D01*
X208806142Y-42064214D01*
X209350428Y-41955357D02*
X209277857Y-41955357D01*
X209241571Y-41973500D01*
X209223428Y-41991642D01*
X209187142Y-42046071D01*
X209169000Y-42118642D01*
X209169000Y-42263785D01*
X209187142Y-42300071D01*
X209205285Y-42318214D01*
X209241571Y-42336357D01*
X209314142Y-42336357D01*
X209350428Y-42318214D01*
X209368571Y-42300071D01*
X209386714Y-42263785D01*
X209386714Y-42173071D01*
X209368571Y-42136785D01*
X209350428Y-42118642D01*
X209314142Y-42100500D01*
X209241571Y-42100500D01*
X209205285Y-42118642D01*
X209187142Y-42136785D01*
X209169000Y-42173071D01*
X209822142Y-42227500D02*
X210003571Y-42227500D01*
X209785857Y-42336357D02*
X209912857Y-41955357D01*
X210039857Y-42336357D01*
X210166857Y-42336357D02*
X210166857Y-41955357D01*
X210257571Y-41955357D01*
X210312000Y-41973500D01*
X210348285Y-42009785D01*
X210366428Y-42046071D01*
X210384571Y-42118642D01*
X210384571Y-42173071D01*
X210366428Y-42245642D01*
X210348285Y-42281928D01*
X210312000Y-42318214D01*
X210257571Y-42336357D01*
X210166857Y-42336357D01*
X210765571Y-42300071D02*
X210747428Y-42318214D01*
X210693000Y-42336357D01*
X210656714Y-42336357D01*
X210602285Y-42318214D01*
X210566000Y-42281928D01*
X210547857Y-42245642D01*
X210529714Y-42173071D01*
X210529714Y-42118642D01*
X210547857Y-42046071D01*
X210566000Y-42009785D01*
X210602285Y-41973500D01*
X210656714Y-41955357D01*
X210693000Y-41955357D01*
X210747428Y-41973500D01*
X210765571Y-41991642D01*
X208896857Y-42733685D02*
X208951285Y-42751828D01*
X208969428Y-42769971D01*
X208987571Y-42806257D01*
X208987571Y-42860685D01*
X208969428Y-42896971D01*
X208951285Y-42915114D01*
X208915000Y-42933257D01*
X208769857Y-42933257D01*
X208769857Y-42552257D01*
X208896857Y-42552257D01*
X208933142Y-42570400D01*
X208951285Y-42588542D01*
X208969428Y-42624828D01*
X208969428Y-42661114D01*
X208951285Y-42697400D01*
X208933142Y-42715542D01*
X208896857Y-42733685D01*
X208769857Y-42733685D01*
X209150857Y-42933257D02*
X209150857Y-42679257D01*
X209150857Y-42751828D02*
X209169000Y-42715542D01*
X209187142Y-42697400D01*
X209223428Y-42679257D01*
X209259714Y-42679257D01*
X209531857Y-42915114D02*
X209495571Y-42933257D01*
X209423000Y-42933257D01*
X209386714Y-42915114D01*
X209368571Y-42878828D01*
X209368571Y-42733685D01*
X209386714Y-42697400D01*
X209423000Y-42679257D01*
X209495571Y-42679257D01*
X209531857Y-42697400D01*
X209550000Y-42733685D01*
X209550000Y-42769971D01*
X209368571Y-42806257D01*
X209876571Y-42933257D02*
X209876571Y-42733685D01*
X209858428Y-42697400D01*
X209822142Y-42679257D01*
X209749571Y-42679257D01*
X209713285Y-42697400D01*
X209876571Y-42915114D02*
X209840285Y-42933257D01*
X209749571Y-42933257D01*
X209713285Y-42915114D01*
X209695142Y-42878828D01*
X209695142Y-42842542D01*
X209713285Y-42806257D01*
X209749571Y-42788114D01*
X209840285Y-42788114D01*
X209876571Y-42769971D01*
X210058000Y-42933257D02*
X210058000Y-42552257D01*
X210094285Y-42788114D02*
X210203142Y-42933257D01*
X210203142Y-42679257D02*
X210058000Y-42824400D01*
X210420857Y-42933257D02*
X210384571Y-42915114D01*
X210366428Y-42896971D01*
X210348285Y-42860685D01*
X210348285Y-42751828D01*
X210366428Y-42715542D01*
X210384571Y-42697400D01*
X210420857Y-42679257D01*
X210475285Y-42679257D01*
X210511571Y-42697400D01*
X210529714Y-42715542D01*
X210547857Y-42751828D01*
X210547857Y-42860685D01*
X210529714Y-42896971D01*
X210511571Y-42915114D01*
X210475285Y-42933257D01*
X210420857Y-42933257D01*
X210874428Y-42679257D02*
X210874428Y-42933257D01*
X210711142Y-42679257D02*
X210711142Y-42878828D01*
X210729285Y-42915114D01*
X210765571Y-42933257D01*
X210820000Y-42933257D01*
X210856285Y-42915114D01*
X210874428Y-42896971D01*
X211001428Y-42679257D02*
X211146571Y-42679257D01*
X211055857Y-42552257D02*
X211055857Y-42878828D01*
X211074000Y-42915114D01*
X211110285Y-42933257D01*
X211146571Y-42933257D01*
X211636428Y-46382214D02*
X211690857Y-46400357D01*
X211781571Y-46400357D01*
X211817857Y-46382214D01*
X211836000Y-46364071D01*
X211854142Y-46327785D01*
X211854142Y-46291500D01*
X211836000Y-46255214D01*
X211817857Y-46237071D01*
X211781571Y-46218928D01*
X211709000Y-46200785D01*
X211672714Y-46182642D01*
X211654571Y-46164500D01*
X211636428Y-46128214D01*
X211636428Y-46091928D01*
X211654571Y-46055642D01*
X211672714Y-46037500D01*
X211709000Y-46019357D01*
X211799714Y-46019357D01*
X211854142Y-46037500D01*
X212235142Y-46364071D02*
X212217000Y-46382214D01*
X212162571Y-46400357D01*
X212126285Y-46400357D01*
X212071857Y-46382214D01*
X212035571Y-46345928D01*
X212017428Y-46309642D01*
X211999285Y-46237071D01*
X211999285Y-46182642D01*
X212017428Y-46110071D01*
X212035571Y-46073785D01*
X212071857Y-46037500D01*
X212126285Y-46019357D01*
X212162571Y-46019357D01*
X212217000Y-46037500D01*
X212235142Y-46055642D01*
X212579857Y-46400357D02*
X212398428Y-46400357D01*
X212398428Y-46019357D01*
X211627357Y-48922214D02*
X211681785Y-48940357D01*
X211772500Y-48940357D01*
X211808785Y-48922214D01*
X211826928Y-48904071D01*
X211845071Y-48867785D01*
X211845071Y-48831500D01*
X211826928Y-48795214D01*
X211808785Y-48777071D01*
X211772500Y-48758928D01*
X211699928Y-48740785D01*
X211663642Y-48722642D01*
X211645500Y-48704500D01*
X211627357Y-48668214D01*
X211627357Y-48631928D01*
X211645500Y-48595642D01*
X211663642Y-48577500D01*
X211699928Y-48559357D01*
X211790642Y-48559357D01*
X211845071Y-48577500D01*
X212008357Y-48940357D02*
X212008357Y-48559357D01*
X212099071Y-48559357D01*
X212153500Y-48577500D01*
X212189785Y-48613785D01*
X212207928Y-48650071D01*
X212226071Y-48722642D01*
X212226071Y-48777071D01*
X212207928Y-48849642D01*
X212189785Y-48885928D01*
X212153500Y-48922214D01*
X212099071Y-48940357D01*
X212008357Y-48940357D01*
X212371214Y-48831500D02*
X212552642Y-48831500D01*
X212334928Y-48940357D02*
X212461928Y-48559357D01*
X212588928Y-48940357D01*
X211799714Y-51117500D02*
X211763428Y-51099357D01*
X211709000Y-51099357D01*
X211654571Y-51117500D01*
X211618285Y-51153785D01*
X211600142Y-51190071D01*
X211582000Y-51262642D01*
X211582000Y-51317071D01*
X211600142Y-51389642D01*
X211618285Y-51425928D01*
X211654571Y-51462214D01*
X211709000Y-51480357D01*
X211745285Y-51480357D01*
X211799714Y-51462214D01*
X211817857Y-51444071D01*
X211817857Y-51317071D01*
X211745285Y-51317071D01*
X211981142Y-51480357D02*
X211981142Y-51099357D01*
X212198857Y-51480357D01*
X212198857Y-51099357D01*
X212380285Y-51480357D02*
X212380285Y-51099357D01*
X212471000Y-51099357D01*
X212525428Y-51117500D01*
X212561714Y-51153785D01*
X212579857Y-51190071D01*
X212598000Y-51262642D01*
X212598000Y-51317071D01*
X212579857Y-51389642D01*
X212561714Y-51425928D01*
X212525428Y-51462214D01*
X212471000Y-51480357D01*
X212380285Y-51480357D01*
X211836000Y-53893357D02*
X211963000Y-54274357D01*
X212090000Y-53893357D01*
X212217000Y-54274357D02*
X212217000Y-53893357D01*
X212307714Y-53893357D01*
X212362142Y-53911500D01*
X212398428Y-53947785D01*
X212416571Y-53984071D01*
X212434714Y-54056642D01*
X212434714Y-54111071D01*
X212416571Y-54183642D01*
X212398428Y-54219928D01*
X212362142Y-54256214D01*
X212307714Y-54274357D01*
X212217000Y-54274357D01*
X212598000Y-54274357D02*
X212598000Y-53893357D01*
X212688714Y-53893357D01*
X212743142Y-53911500D01*
X212779428Y-53947785D01*
X212797571Y-53984071D01*
X212815714Y-54056642D01*
X212815714Y-54111071D01*
X212797571Y-54183642D01*
X212779428Y-54219928D01*
X212743142Y-54256214D01*
X212688714Y-54274357D01*
X212598000Y-54274357D01*
X221624071Y-54991907D02*
X221624071Y-54610907D01*
X221787357Y-54647192D02*
X221805500Y-54629050D01*
X221841785Y-54610907D01*
X221932500Y-54610907D01*
X221968785Y-54629050D01*
X221986928Y-54647192D01*
X222005071Y-54683478D01*
X222005071Y-54719764D01*
X221986928Y-54774192D01*
X221769214Y-54991907D01*
X222005071Y-54991907D01*
X222386071Y-54955621D02*
X222367928Y-54973764D01*
X222313500Y-54991907D01*
X222277214Y-54991907D01*
X222222785Y-54973764D01*
X222186500Y-54937478D01*
X222168357Y-54901192D01*
X222150214Y-54828621D01*
X222150214Y-54774192D01*
X222168357Y-54701621D01*
X222186500Y-54665335D01*
X222222785Y-54629050D01*
X222277214Y-54610907D01*
X222313500Y-54610907D01*
X222367928Y-54629050D01*
X222386071Y-54647192D01*
X221170500Y-55207807D02*
X221170500Y-55479950D01*
X221152357Y-55534378D01*
X221116071Y-55570664D01*
X221061642Y-55588807D01*
X221025357Y-55588807D01*
X221515214Y-55334807D02*
X221515214Y-55588807D01*
X221351928Y-55334807D02*
X221351928Y-55534378D01*
X221370071Y-55570664D01*
X221406357Y-55588807D01*
X221460785Y-55588807D01*
X221497071Y-55570664D01*
X221515214Y-55552521D01*
X221696642Y-55588807D02*
X221696642Y-55334807D01*
X221696642Y-55371092D02*
X221714785Y-55352950D01*
X221751071Y-55334807D01*
X221805500Y-55334807D01*
X221841785Y-55352950D01*
X221859928Y-55389235D01*
X221859928Y-55588807D01*
X221859928Y-55389235D02*
X221878071Y-55352950D01*
X221914357Y-55334807D01*
X221968785Y-55334807D01*
X222005071Y-55352950D01*
X222023214Y-55389235D01*
X222023214Y-55588807D01*
X222204642Y-55334807D02*
X222204642Y-55715807D01*
X222204642Y-55352950D02*
X222240928Y-55334807D01*
X222313500Y-55334807D01*
X222349785Y-55352950D01*
X222367928Y-55371092D01*
X222386071Y-55407378D01*
X222386071Y-55516235D01*
X222367928Y-55552521D01*
X222349785Y-55570664D01*
X222313500Y-55588807D01*
X222240928Y-55588807D01*
X222204642Y-55570664D01*
X222694500Y-55570664D02*
X222658214Y-55588807D01*
X222585642Y-55588807D01*
X222549357Y-55570664D01*
X222531214Y-55534378D01*
X222531214Y-55389235D01*
X222549357Y-55352950D01*
X222585642Y-55334807D01*
X222658214Y-55334807D01*
X222694500Y-55352950D01*
X222712642Y-55389235D01*
X222712642Y-55425521D01*
X222531214Y-55461807D01*
X222875928Y-55588807D02*
X222875928Y-55334807D01*
X222875928Y-55407378D02*
X222894071Y-55371092D01*
X222912214Y-55352950D01*
X222948500Y-55334807D01*
X222984785Y-55334807D01*
D11*
X208728000Y-44898000D02*
X210058000Y-44898000D01*
X208728000Y-46228000D02*
X208728000Y-44898000D01*
X208728000Y-47498000D02*
X211388000Y-47498000D01*
X211388000Y-47498000D02*
X211388000Y-55178000D01*
X208728000Y-47498000D02*
X208728000Y-55178000D01*
X208728000Y-55178000D02*
X211388000Y-55178000D01*
D13*
G36*
X227841810Y-45714948D02*
G01*
X227868917Y-45716746D01*
X227891079Y-45721707D01*
X227906366Y-45729273D01*
X227911600Y-45735128D01*
X227916437Y-45752089D01*
X227915705Y-45770892D01*
X227909831Y-45786939D01*
X227906377Y-45791322D01*
X227899653Y-45798922D01*
X227899173Y-45805036D01*
X227904775Y-45814338D01*
X227905545Y-45815452D01*
X227915181Y-45829775D01*
X227918941Y-45837694D01*
X227916807Y-45841104D01*
X227908760Y-45841905D01*
X227905280Y-45841920D01*
X227893007Y-45840414D01*
X227885166Y-45834034D01*
X227879663Y-45824140D01*
X227872230Y-45811961D01*
X227863438Y-45806997D01*
X227855862Y-45806360D01*
X227845569Y-45807342D01*
X227841347Y-45812347D01*
X227840540Y-45824140D01*
X227839591Y-45836163D01*
X227835321Y-45841086D01*
X227827840Y-45841920D01*
X227815140Y-45841920D01*
X227815140Y-45781544D01*
X227840540Y-45781544D01*
X227861612Y-45779982D01*
X227878796Y-45776408D01*
X227888256Y-45769530D01*
X227891192Y-45757868D01*
X227885076Y-45748529D01*
X227870940Y-45742606D01*
X227861612Y-45741297D01*
X227840540Y-45739735D01*
X227840540Y-45781544D01*
X227815140Y-45781544D01*
X227815140Y-45714920D01*
X227841810Y-45714948D01*
G37*
X227841810Y-45714948D02*
X227868917Y-45716746D01*
X227891079Y-45721707D01*
X227906366Y-45729273D01*
X227911600Y-45735128D01*
X227916437Y-45752089D01*
X227915705Y-45770892D01*
X227909831Y-45786939D01*
X227906377Y-45791322D01*
X227899653Y-45798922D01*
X227899173Y-45805036D01*
X227904775Y-45814338D01*
X227905545Y-45815452D01*
X227915181Y-45829775D01*
X227918941Y-45837694D01*
X227916807Y-45841104D01*
X227908760Y-45841905D01*
X227905280Y-45841920D01*
X227893007Y-45840414D01*
X227885166Y-45834034D01*
X227879663Y-45824140D01*
X227872230Y-45811961D01*
X227863438Y-45806997D01*
X227855862Y-45806360D01*
X227845569Y-45807342D01*
X227841347Y-45812347D01*
X227840540Y-45824140D01*
X227839591Y-45836163D01*
X227835321Y-45841086D01*
X227827840Y-45841920D01*
X227815140Y-45841920D01*
X227815140Y-45781544D01*
X227840540Y-45781544D01*
X227861612Y-45779982D01*
X227878796Y-45776408D01*
X227888256Y-45769530D01*
X227891192Y-45757868D01*
X227885076Y-45748529D01*
X227870940Y-45742606D01*
X227861612Y-45741297D01*
X227840540Y-45739735D01*
X227840540Y-45781544D01*
X227815140Y-45781544D01*
X227815140Y-45714920D01*
X227841810Y-45714948D01*
G36*
X224469593Y-45057858D02*
G01*
X224501869Y-45068474D01*
X224531142Y-45087269D01*
X224538791Y-45093810D01*
X224564953Y-45122679D01*
X224583446Y-45155813D01*
X224594620Y-45194228D01*
X224598825Y-45238940D01*
X224598299Y-45266488D01*
X224596634Y-45290804D01*
X224593969Y-45308903D01*
X224589295Y-45324727D01*
X224581603Y-45342219D01*
X224576051Y-45353329D01*
X224554266Y-45387927D01*
X224528254Y-45413657D01*
X224496974Y-45431206D01*
X224459389Y-45441262D01*
X224439919Y-45443545D01*
X224418931Y-45443393D01*
X224397307Y-45440566D01*
X224390861Y-45439029D01*
X224352027Y-45423350D01*
X224320125Y-45400319D01*
X224295313Y-45370152D01*
X224277749Y-45333071D01*
X224267592Y-45289294D01*
X224265349Y-45265147D01*
X224266126Y-45216279D01*
X224274145Y-45173965D01*
X224289714Y-45137338D01*
X224313140Y-45105528D01*
X224326288Y-45092587D01*
X224355047Y-45071880D01*
X224386855Y-45059488D01*
X224423826Y-45054648D01*
X224431860Y-45054520D01*
X224469593Y-45057858D01*
G37*
X224469593Y-45057858D02*
X224501869Y-45068474D01*
X224531142Y-45087269D01*
X224538791Y-45093810D01*
X224564953Y-45122679D01*
X224583446Y-45155813D01*
X224594620Y-45194228D01*
X224598825Y-45238940D01*
X224598299Y-45266488D01*
X224596634Y-45290804D01*
X224593969Y-45308903D01*
X224589295Y-45324727D01*
X224581603Y-45342219D01*
X224576051Y-45353329D01*
X224554266Y-45387927D01*
X224528254Y-45413657D01*
X224496974Y-45431206D01*
X224459389Y-45441262D01*
X224439919Y-45443545D01*
X224418931Y-45443393D01*
X224397307Y-45440566D01*
X224390861Y-45439029D01*
X224352027Y-45423350D01*
X224320125Y-45400319D01*
X224295313Y-45370152D01*
X224277749Y-45333071D01*
X224267592Y-45289294D01*
X224265349Y-45265147D01*
X224266126Y-45216279D01*
X224274145Y-45173965D01*
X224289714Y-45137338D01*
X224313140Y-45105528D01*
X224326288Y-45092587D01*
X224355047Y-45071880D01*
X224386855Y-45059488D01*
X224423826Y-45054648D01*
X224431860Y-45054520D01*
X224469593Y-45057858D01*
G36*
X227889932Y-45657078D02*
G01*
X227922239Y-45668126D01*
X227943742Y-45681529D01*
X227955940Y-45693532D01*
X227968750Y-45710224D01*
X227975576Y-45721248D01*
X227984026Y-45738448D01*
X227988503Y-45754112D01*
X227990129Y-45773010D01*
X227990231Y-45783500D01*
X227985566Y-45820002D01*
X227971983Y-45851741D01*
X227949771Y-45878240D01*
X227919429Y-45898920D01*
X227899241Y-45906083D01*
X227874475Y-45910339D01*
X227849322Y-45911331D01*
X227827974Y-45908707D01*
X227822760Y-45907094D01*
X227791475Y-45890405D01*
X227766411Y-45867261D01*
X227748233Y-45839274D01*
X227737602Y-45808055D01*
X227735428Y-45778531D01*
X227764233Y-45778531D01*
X227766835Y-45807018D01*
X227777367Y-45833290D01*
X227786136Y-45845366D01*
X227810392Y-45866185D01*
X227838214Y-45878532D01*
X227867770Y-45881937D01*
X227897228Y-45875928D01*
X227900323Y-45874697D01*
X227926254Y-45859058D01*
X227945623Y-45837664D01*
X227957983Y-45812374D01*
X227962887Y-45785043D01*
X227959887Y-45757530D01*
X227948537Y-45731692D01*
X227938006Y-45718264D01*
X227912961Y-45698419D01*
X227885026Y-45687549D01*
X227855907Y-45685570D01*
X227827310Y-45692398D01*
X227800942Y-45707947D01*
X227783103Y-45725970D01*
X227769632Y-45750594D01*
X227764233Y-45778531D01*
X227735428Y-45778531D01*
X227735183Y-45775217D01*
X227741638Y-45742371D01*
X227748411Y-45726428D01*
X227768535Y-45697213D01*
X227794402Y-45675291D01*
X227824360Y-45661041D01*
X227856754Y-45654843D01*
X227889932Y-45657078D01*
G37*
X227889932Y-45657078D02*
X227922239Y-45668126D01*
X227943742Y-45681529D01*
X227955940Y-45693532D01*
X227968750Y-45710224D01*
X227975576Y-45721248D01*
X227984026Y-45738448D01*
X227988503Y-45754112D01*
X227990129Y-45773010D01*
X227990231Y-45783500D01*
X227985566Y-45820002D01*
X227971983Y-45851741D01*
X227949771Y-45878240D01*
X227919429Y-45898920D01*
X227899241Y-45906083D01*
X227874475Y-45910339D01*
X227849322Y-45911331D01*
X227827974Y-45908707D01*
X227822760Y-45907094D01*
X227791475Y-45890405D01*
X227766411Y-45867261D01*
X227748233Y-45839274D01*
X227737602Y-45808055D01*
X227735428Y-45778531D01*
X227764233Y-45778531D01*
X227766835Y-45807018D01*
X227777367Y-45833290D01*
X227786136Y-45845366D01*
X227810392Y-45866185D01*
X227838214Y-45878532D01*
X227867770Y-45881937D01*
X227897228Y-45875928D01*
X227900323Y-45874697D01*
X227926254Y-45859058D01*
X227945623Y-45837664D01*
X227957983Y-45812374D01*
X227962887Y-45785043D01*
X227959887Y-45757530D01*
X227948537Y-45731692D01*
X227938006Y-45718264D01*
X227912961Y-45698419D01*
X227885026Y-45687549D01*
X227855907Y-45685570D01*
X227827310Y-45692398D01*
X227800942Y-45707947D01*
X227783103Y-45725970D01*
X227769632Y-45750594D01*
X227764233Y-45778531D01*
X227735428Y-45778531D01*
X227735183Y-45775217D01*
X227741638Y-45742371D01*
X227748411Y-45726428D01*
X227768535Y-45697213D01*
X227794402Y-45675291D01*
X227824360Y-45661041D01*
X227856754Y-45654843D01*
X227889932Y-45657078D01*
G36*
X225947961Y-44564301D02*
G01*
X226085190Y-44564307D01*
X226212958Y-44564320D01*
X226331611Y-44564341D01*
X226441500Y-44564373D01*
X226542972Y-44564419D01*
X226636377Y-44564479D01*
X226722063Y-44564557D01*
X226800379Y-44564654D01*
X226871673Y-44564773D01*
X226936295Y-44564916D01*
X226994594Y-44565084D01*
X227046917Y-44565281D01*
X227093614Y-44565507D01*
X227135033Y-44565766D01*
X227171523Y-44566059D01*
X227203434Y-44566389D01*
X227231113Y-44566757D01*
X227254909Y-44567166D01*
X227275172Y-44567618D01*
X227292250Y-44568115D01*
X227306491Y-44568659D01*
X227318244Y-44569253D01*
X227327859Y-44569898D01*
X227335684Y-44570596D01*
X227342067Y-44571351D01*
X227347357Y-44572163D01*
X227351904Y-44573035D01*
X227355400Y-44573814D01*
X227437946Y-44598018D01*
X227515125Y-44630577D01*
X227586542Y-44671191D01*
X227651802Y-44719558D01*
X227710510Y-44775375D01*
X227762272Y-44838341D01*
X227806694Y-44908153D01*
X227816803Y-44927020D01*
X227848550Y-44997013D01*
X227871182Y-45067157D01*
X227885195Y-45139504D01*
X227891080Y-45216109D01*
X227891340Y-45237170D01*
X227886781Y-45321599D01*
X227873044Y-45401710D01*
X227850040Y-45477727D01*
X227817677Y-45549875D01*
X227775865Y-45618381D01*
X227724514Y-45683468D01*
X227702574Y-45707254D01*
X227645157Y-45761280D01*
X227584539Y-45806736D01*
X227519494Y-45844305D01*
X227448794Y-45874669D01*
X227371215Y-45898509D01*
X227348790Y-45903948D01*
X227299520Y-45915279D01*
X226079050Y-45916800D01*
X224858580Y-45918322D01*
X224858580Y-44858940D01*
X224900204Y-44858940D01*
X225040682Y-45246202D01*
X225181160Y-45633465D01*
X225308498Y-45633552D01*
X225435837Y-45633640D01*
X225508657Y-45398690D01*
X225523234Y-45351800D01*
X225536974Y-45307870D01*
X225549573Y-45267855D01*
X225560727Y-45232709D01*
X225570131Y-45203389D01*
X225577480Y-45180849D01*
X225582470Y-45166043D01*
X225584795Y-45159929D01*
X225584849Y-45159853D01*
X225586954Y-45163777D01*
X225591706Y-45176517D01*
X225598810Y-45197163D01*
X225607968Y-45224807D01*
X225618884Y-45258541D01*
X225631261Y-45297455D01*
X225644803Y-45340640D01*
X225659212Y-45387189D01*
X225661550Y-45394797D01*
X225734880Y-45633627D01*
X225861910Y-45633633D01*
X225988941Y-45633640D01*
X226129880Y-45248302D01*
X226151738Y-45188504D01*
X226172557Y-45131466D01*
X226192079Y-45077908D01*
X226210042Y-45028548D01*
X226226186Y-44984106D01*
X226240250Y-44945298D01*
X226251973Y-44912845D01*
X226261096Y-44887464D01*
X226267356Y-44869874D01*
X226270495Y-44860793D01*
X226270820Y-44859682D01*
X226265969Y-44858773D01*
X226252339Y-44857960D01*
X226231307Y-44857281D01*
X226204254Y-44856772D01*
X226172558Y-44856469D01*
X226147322Y-44856400D01*
X226306380Y-44856400D01*
X226306380Y-45633640D01*
X226560380Y-45633640D01*
X226560380Y-44856400D01*
X226611180Y-44856400D01*
X226611180Y-45633640D01*
X226865180Y-45633640D01*
X226865180Y-45247560D01*
X226918534Y-45247560D01*
X226919026Y-45288248D01*
X226920842Y-45321357D01*
X226924511Y-45349433D01*
X226930564Y-45375025D01*
X226939533Y-45400682D01*
X226951946Y-45428952D01*
X226959604Y-45444849D01*
X226989443Y-45494341D01*
X227026991Y-45537336D01*
X227071763Y-45573342D01*
X227106686Y-45593891D01*
X227153412Y-45615339D01*
X227197921Y-45629993D01*
X227243564Y-45638617D01*
X227293688Y-45641976D01*
X227317300Y-45641995D01*
X227365560Y-45641260D01*
X227368306Y-45436772D01*
X227323398Y-45434625D01*
X227287090Y-45430306D01*
X227257871Y-45420638D01*
X227233705Y-45404737D01*
X227218494Y-45389175D01*
X227196926Y-45356588D01*
X227181953Y-45319197D01*
X227173521Y-45278839D01*
X227171572Y-45237351D01*
X227176050Y-45196569D01*
X227186901Y-45158330D01*
X227204067Y-45124471D01*
X227227393Y-45096919D01*
X227252073Y-45077957D01*
X227277380Y-45066276D01*
X227306600Y-45060668D01*
X227328833Y-45059711D01*
X227368306Y-45059600D01*
X227365560Y-44848780D01*
X227302060Y-44849596D01*
X227251497Y-44852171D01*
X227207087Y-44859012D01*
X227165438Y-44870904D01*
X227123159Y-44888630D01*
X227114100Y-44893059D01*
X227073273Y-44918000D01*
X227034120Y-44950401D01*
X226999157Y-44987783D01*
X226970900Y-45027667D01*
X226962880Y-45042107D01*
X226946897Y-45075378D01*
X226935108Y-45105709D01*
X226926945Y-45135730D01*
X226921840Y-45168069D01*
X226919226Y-45205357D01*
X226918534Y-45247560D01*
X226865180Y-45247560D01*
X226865180Y-44856400D01*
X226611180Y-44856400D01*
X226560380Y-44856400D01*
X226306380Y-44856400D01*
X226147322Y-44856400D01*
X226023824Y-44856400D01*
X225951050Y-45104050D01*
X225936707Y-45152761D01*
X225923071Y-45198879D01*
X225910440Y-45241412D01*
X225899111Y-45279369D01*
X225889379Y-45311761D01*
X225881543Y-45337596D01*
X225875898Y-45355884D01*
X225872741Y-45365635D01*
X225872404Y-45366552D01*
X225871278Y-45369092D01*
X225870064Y-45370551D01*
X225868582Y-45370360D01*
X225866651Y-45367945D01*
X225864090Y-45362737D01*
X225860719Y-45354163D01*
X225856356Y-45341652D01*
X225850821Y-45324633D01*
X225843933Y-45302535D01*
X225835512Y-45274786D01*
X225825376Y-45240816D01*
X225813345Y-45200051D01*
X225799238Y-45151923D01*
X225782875Y-45095858D01*
X225764075Y-45031286D01*
X225742656Y-44957635D01*
X225738332Y-44942760D01*
X225713963Y-44858940D01*
X225468849Y-44856220D01*
X225456187Y-44898220D01*
X225452081Y-44912064D01*
X225445536Y-44934418D01*
X225436915Y-44964028D01*
X225426583Y-44999640D01*
X225414902Y-45039998D01*
X225402237Y-45083847D01*
X225388952Y-45129933D01*
X225381415Y-45156120D01*
X225368411Y-45201157D01*
X225356184Y-45243181D01*
X225345034Y-45281185D01*
X225335262Y-45314161D01*
X225327166Y-45341102D01*
X225321046Y-45361001D01*
X225317203Y-45372852D01*
X225316021Y-45375827D01*
X225314006Y-45371842D01*
X225309433Y-45358983D01*
X225302575Y-45338134D01*
X225293709Y-45310180D01*
X225283110Y-45276004D01*
X225271053Y-45236488D01*
X225257815Y-45192517D01*
X225243670Y-45144975D01*
X225237330Y-45123491D01*
X225222823Y-45074322D01*
X225209103Y-45028045D01*
X225196452Y-44985587D01*
X225185148Y-44947872D01*
X225175470Y-44915830D01*
X225167698Y-44890385D01*
X225162110Y-44872466D01*
X225158986Y-44862998D01*
X225158487Y-44861783D01*
X225153066Y-44859882D01*
X225139219Y-44858509D01*
X225116547Y-44857652D01*
X225084653Y-44857298D01*
X225043136Y-44857434D01*
X225027627Y-44857580D01*
X224900204Y-44858940D01*
X224858580Y-44858940D01*
X224858580Y-44856400D01*
X224599500Y-44856400D01*
X224599500Y-44955112D01*
X224572830Y-44929113D01*
X224533184Y-44896309D01*
X224489244Y-44871653D01*
X224462340Y-44860985D01*
X224436167Y-44854561D01*
X224403196Y-44850453D01*
X224366530Y-44848706D01*
X224329274Y-44849361D01*
X224294530Y-44852462D01*
X224265404Y-44858051D01*
X224264659Y-44858255D01*
X224209339Y-44878630D01*
X224159488Y-44907457D01*
X224115589Y-44944335D01*
X224078123Y-44988865D01*
X224049505Y-45036740D01*
X224030403Y-45083816D01*
X224016536Y-45137113D01*
X224008332Y-45193899D01*
X224006221Y-45251444D01*
X224009022Y-45294595D01*
X224014531Y-45335435D01*
X224021377Y-45369604D01*
X224030535Y-45400586D01*
X224042981Y-45431864D01*
X224054191Y-45455840D01*
X224082904Y-45504043D01*
X224118640Y-45546420D01*
X224160133Y-45581684D01*
X224203260Y-45607198D01*
X224258647Y-45628531D01*
X224316897Y-45640607D01*
X224369618Y-45643800D01*
X224425288Y-45639355D01*
X224476293Y-45626104D01*
X224522309Y-45604170D01*
X224563009Y-45573678D01*
X224569414Y-45567616D01*
X224599500Y-45538177D01*
X224599500Y-45918120D01*
X224476310Y-45917266D01*
X224440700Y-45916949D01*
X224407397Y-45916522D01*
X224378101Y-45916016D01*
X224354514Y-45915464D01*
X224338337Y-45914899D01*
X224332800Y-45914557D01*
X224252886Y-45902373D01*
X224175642Y-45880985D01*
X224101838Y-45850967D01*
X224032243Y-45812890D01*
X223967629Y-45767329D01*
X223908763Y-45714856D01*
X223856418Y-45656043D01*
X223811362Y-45591463D01*
X223774366Y-45521690D01*
X223760594Y-45488860D01*
X223735682Y-45412116D01*
X223719618Y-45334336D01*
X223712627Y-45257043D01*
X223714914Y-45182014D01*
X223727581Y-45097674D01*
X223749150Y-45018207D01*
X223779703Y-44943438D01*
X223819325Y-44873194D01*
X223868098Y-44807303D01*
X223922673Y-44748878D01*
X223984496Y-44695691D01*
X224050693Y-44651323D01*
X224122030Y-44615351D01*
X224199272Y-44587352D01*
X224232348Y-44578201D01*
X224287080Y-44564300D01*
X225800920Y-44564300D01*
X225947961Y-44564301D01*
G37*
X225947961Y-44564301D02*
X226085190Y-44564307D01*
X226212958Y-44564320D01*
X226331611Y-44564341D01*
X226441500Y-44564373D01*
X226542972Y-44564419D01*
X226636377Y-44564479D01*
X226722063Y-44564557D01*
X226800379Y-44564654D01*
X226871673Y-44564773D01*
X226936295Y-44564916D01*
X226994594Y-44565084D01*
X227046917Y-44565281D01*
X227093614Y-44565507D01*
X227135033Y-44565766D01*
X227171523Y-44566059D01*
X227203434Y-44566389D01*
X227231113Y-44566757D01*
X227254909Y-44567166D01*
X227275172Y-44567618D01*
X227292250Y-44568115D01*
X227306491Y-44568659D01*
X227318244Y-44569253D01*
X227327859Y-44569898D01*
X227335684Y-44570596D01*
X227342067Y-44571351D01*
X227347357Y-44572163D01*
X227351904Y-44573035D01*
X227355400Y-44573814D01*
X227437946Y-44598018D01*
X227515125Y-44630577D01*
X227586542Y-44671191D01*
X227651802Y-44719558D01*
X227710510Y-44775375D01*
X227762272Y-44838341D01*
X227806694Y-44908153D01*
X227816803Y-44927020D01*
X227848550Y-44997013D01*
X227871182Y-45067157D01*
X227885195Y-45139504D01*
X227891080Y-45216109D01*
X227891340Y-45237170D01*
X227886781Y-45321599D01*
X227873044Y-45401710D01*
X227850040Y-45477727D01*
X227817677Y-45549875D01*
X227775865Y-45618381D01*
X227724514Y-45683468D01*
X227702574Y-45707254D01*
X227645157Y-45761280D01*
X227584539Y-45806736D01*
X227519494Y-45844305D01*
X227448794Y-45874669D01*
X227371215Y-45898509D01*
X227348790Y-45903948D01*
X227299520Y-45915279D01*
X226079050Y-45916800D01*
X224858580Y-45918322D01*
X224858580Y-44858940D01*
X224900204Y-44858940D01*
X225040682Y-45246202D01*
X225181160Y-45633465D01*
X225308498Y-45633552D01*
X225435837Y-45633640D01*
X225508657Y-45398690D01*
X225523234Y-45351800D01*
X225536974Y-45307870D01*
X225549573Y-45267855D01*
X225560727Y-45232709D01*
X225570131Y-45203389D01*
X225577480Y-45180849D01*
X225582470Y-45166043D01*
X225584795Y-45159929D01*
X225584849Y-45159853D01*
X225586954Y-45163777D01*
X225591706Y-45176517D01*
X225598810Y-45197163D01*
X225607968Y-45224807D01*
X225618884Y-45258541D01*
X225631261Y-45297455D01*
X225644803Y-45340640D01*
X225659212Y-45387189D01*
X225661550Y-45394797D01*
X225734880Y-45633627D01*
X225861910Y-45633633D01*
X225988941Y-45633640D01*
X226129880Y-45248302D01*
X226151738Y-45188504D01*
X226172557Y-45131466D01*
X226192079Y-45077908D01*
X226210042Y-45028548D01*
X226226186Y-44984106D01*
X226240250Y-44945298D01*
X226251973Y-44912845D01*
X226261096Y-44887464D01*
X226267356Y-44869874D01*
X226270495Y-44860793D01*
X226270820Y-44859682D01*
X226265969Y-44858773D01*
X226252339Y-44857960D01*
X226231307Y-44857281D01*
X226204254Y-44856772D01*
X226172558Y-44856469D01*
X226147322Y-44856400D01*
X226306380Y-44856400D01*
X226306380Y-45633640D01*
X226560380Y-45633640D01*
X226560380Y-44856400D01*
X226611180Y-44856400D01*
X226611180Y-45633640D01*
X226865180Y-45633640D01*
X226865180Y-45247560D01*
X226918534Y-45247560D01*
X226919026Y-45288248D01*
X226920842Y-45321357D01*
X226924511Y-45349433D01*
X226930564Y-45375025D01*
X226939533Y-45400682D01*
X226951946Y-45428952D01*
X226959604Y-45444849D01*
X226989443Y-45494341D01*
X227026991Y-45537336D01*
X227071763Y-45573342D01*
X227106686Y-45593891D01*
X227153412Y-45615339D01*
X227197921Y-45629993D01*
X227243564Y-45638617D01*
X227293688Y-45641976D01*
X227317300Y-45641995D01*
X227365560Y-45641260D01*
X227368306Y-45436772D01*
X227323398Y-45434625D01*
X227287090Y-45430306D01*
X227257871Y-45420638D01*
X227233705Y-45404737D01*
X227218494Y-45389175D01*
X227196926Y-45356588D01*
X227181953Y-45319197D01*
X227173521Y-45278839D01*
X227171572Y-45237351D01*
X227176050Y-45196569D01*
X227186901Y-45158330D01*
X227204067Y-45124471D01*
X227227393Y-45096919D01*
X227252073Y-45077957D01*
X227277380Y-45066276D01*
X227306600Y-45060668D01*
X227328833Y-45059711D01*
X227368306Y-45059600D01*
X227365560Y-44848780D01*
X227302060Y-44849596D01*
X227251497Y-44852171D01*
X227207087Y-44859012D01*
X227165438Y-44870904D01*
X227123159Y-44888630D01*
X227114100Y-44893059D01*
X227073273Y-44918000D01*
X227034120Y-44950401D01*
X226999157Y-44987783D01*
X226970900Y-45027667D01*
X226962880Y-45042107D01*
X226946897Y-45075378D01*
X226935108Y-45105709D01*
X226926945Y-45135730D01*
X226921840Y-45168069D01*
X226919226Y-45205357D01*
X226918534Y-45247560D01*
X226865180Y-45247560D01*
X226865180Y-44856400D01*
X226611180Y-44856400D01*
X226560380Y-44856400D01*
X226306380Y-44856400D01*
X226147322Y-44856400D01*
X226023824Y-44856400D01*
X225951050Y-45104050D01*
X225936707Y-45152761D01*
X225923071Y-45198879D01*
X225910440Y-45241412D01*
X225899111Y-45279369D01*
X225889379Y-45311761D01*
X225881543Y-45337596D01*
X225875898Y-45355884D01*
X225872741Y-45365635D01*
X225872404Y-45366552D01*
X225871278Y-45369092D01*
X225870064Y-45370551D01*
X225868582Y-45370360D01*
X225866651Y-45367945D01*
X225864090Y-45362737D01*
X225860719Y-45354163D01*
X225856356Y-45341652D01*
X225850821Y-45324633D01*
X225843933Y-45302535D01*
X225835512Y-45274786D01*
X225825376Y-45240816D01*
X225813345Y-45200051D01*
X225799238Y-45151923D01*
X225782875Y-45095858D01*
X225764075Y-45031286D01*
X225742656Y-44957635D01*
X225738332Y-44942760D01*
X225713963Y-44858940D01*
X225468849Y-44856220D01*
X225456187Y-44898220D01*
X225452081Y-44912064D01*
X225445536Y-44934418D01*
X225436915Y-44964028D01*
X225426583Y-44999640D01*
X225414902Y-45039998D01*
X225402237Y-45083847D01*
X225388952Y-45129933D01*
X225381415Y-45156120D01*
X225368411Y-45201157D01*
X225356184Y-45243181D01*
X225345034Y-45281185D01*
X225335262Y-45314161D01*
X225327166Y-45341102D01*
X225321046Y-45361001D01*
X225317203Y-45372852D01*
X225316021Y-45375827D01*
X225314006Y-45371842D01*
X225309433Y-45358983D01*
X225302575Y-45338134D01*
X225293709Y-45310180D01*
X225283110Y-45276004D01*
X225271053Y-45236488D01*
X225257815Y-45192517D01*
X225243670Y-45144975D01*
X225237330Y-45123491D01*
X225222823Y-45074322D01*
X225209103Y-45028045D01*
X225196452Y-44985587D01*
X225185148Y-44947872D01*
X225175470Y-44915830D01*
X225167698Y-44890385D01*
X225162110Y-44872466D01*
X225158986Y-44862998D01*
X225158487Y-44861783D01*
X225153066Y-44859882D01*
X225139219Y-44858509D01*
X225116547Y-44857652D01*
X225084653Y-44857298D01*
X225043136Y-44857434D01*
X225027627Y-44857580D01*
X224900204Y-44858940D01*
X224858580Y-44858940D01*
X224858580Y-44856400D01*
X224599500Y-44856400D01*
X224599500Y-44955112D01*
X224572830Y-44929113D01*
X224533184Y-44896309D01*
X224489244Y-44871653D01*
X224462340Y-44860985D01*
X224436167Y-44854561D01*
X224403196Y-44850453D01*
X224366530Y-44848706D01*
X224329274Y-44849361D01*
X224294530Y-44852462D01*
X224265404Y-44858051D01*
X224264659Y-44858255D01*
X224209339Y-44878630D01*
X224159488Y-44907457D01*
X224115589Y-44944335D01*
X224078123Y-44988865D01*
X224049505Y-45036740D01*
X224030403Y-45083816D01*
X224016536Y-45137113D01*
X224008332Y-45193899D01*
X224006221Y-45251444D01*
X224009022Y-45294595D01*
X224014531Y-45335435D01*
X224021377Y-45369604D01*
X224030535Y-45400586D01*
X224042981Y-45431864D01*
X224054191Y-45455840D01*
X224082904Y-45504043D01*
X224118640Y-45546420D01*
X224160133Y-45581684D01*
X224203260Y-45607198D01*
X224258647Y-45628531D01*
X224316897Y-45640607D01*
X224369618Y-45643800D01*
X224425288Y-45639355D01*
X224476293Y-45626104D01*
X224522309Y-45604170D01*
X224563009Y-45573678D01*
X224569414Y-45567616D01*
X224599500Y-45538177D01*
X224599500Y-45918120D01*
X224476310Y-45917266D01*
X224440700Y-45916949D01*
X224407397Y-45916522D01*
X224378101Y-45916016D01*
X224354514Y-45915464D01*
X224338337Y-45914899D01*
X224332800Y-45914557D01*
X224252886Y-45902373D01*
X224175642Y-45880985D01*
X224101838Y-45850967D01*
X224032243Y-45812890D01*
X223967629Y-45767329D01*
X223908763Y-45714856D01*
X223856418Y-45656043D01*
X223811362Y-45591463D01*
X223774366Y-45521690D01*
X223760594Y-45488860D01*
X223735682Y-45412116D01*
X223719618Y-45334336D01*
X223712627Y-45257043D01*
X223714914Y-45182014D01*
X223727581Y-45097674D01*
X223749150Y-45018207D01*
X223779703Y-44943438D01*
X223819325Y-44873194D01*
X223868098Y-44807303D01*
X223922673Y-44748878D01*
X223984496Y-44695691D01*
X224050693Y-44651323D01*
X224122030Y-44615351D01*
X224199272Y-44587352D01*
X224232348Y-44578201D01*
X224287080Y-44564300D01*
X225800920Y-44564300D01*
X225947961Y-44564301D01*
D14*
X224078000Y-43762000D02*
G75*
G03X224078000Y-43762000I-50000J0D01*
G01*
D11*
X228317000Y-52854000D02*
X228317000Y-52354000D01*
X227577000Y-52854000D02*
X228317000Y-52854000D01*
X221757000Y-46954000D02*
X228077000Y-46954000D01*
X221757000Y-52614000D02*
X228077000Y-52614000D01*
X228077000Y-47724000D02*
X228077000Y-46954000D01*
X228077000Y-50264000D02*
X228077000Y-49304000D01*
X228077000Y-52614000D02*
X228077000Y-51844000D01*
X221757000Y-52614000D02*
X221757000Y-46954000D01*
X222217000Y-52614000D02*
X222217000Y-46954000D01*
X227517000Y-47724000D02*
X227517000Y-46954000D01*
X227517000Y-50264000D02*
X227517000Y-49304000D01*
X227517000Y-52614000D02*
X227517000Y-51844000D01*
X217140505Y-48936000D02*
X214690505Y-48936000D01*
X215340505Y-52156000D02*
X217140505Y-52156000D01*
X223009000Y-53737000D02*
X225809000Y-53737000D01*
X225809000Y-53737000D02*
X225809000Y-55737000D01*
X225809000Y-55737000D02*
X223009000Y-55737000D01*
X223009000Y-55737000D02*
X223009000Y-53737000D01*
D15*
X213880845Y-54310280D02*
G75*
G03X213880845Y-54310280I-139700J0D01*
G01*
D16*
X213240765Y-54957980D02*
X213992605Y-54957980D01*
X219240245Y-54957980D02*
X219240245Y-56608980D01*
X218488405Y-54957980D02*
X219240245Y-54957980D01*
X213240765Y-56608980D02*
X213240765Y-54957980D01*
X214741905Y-59209940D02*
X217739105Y-59209940D01*
D15*
X219047060Y-46273720D02*
G75*
G03X219047060Y-46273720I-139700J0D01*
G01*
D16*
X219407740Y-45626020D02*
X218655900Y-45626020D01*
X213408260Y-45626020D02*
X213408260Y-43975020D01*
X214160100Y-45626020D02*
X213408260Y-45626020D01*
X219407740Y-43975020D02*
X219407740Y-45626020D01*
X217906600Y-41374060D02*
X214909400Y-41374060D01*
D17*
X211624333Y-44610261D02*
X211624333Y-45063833D01*
X211594095Y-45154547D01*
X211533619Y-45215023D01*
X211442904Y-45245261D01*
X211382428Y-45245261D01*
X212198857Y-44821928D02*
X212198857Y-45245261D01*
X212047666Y-44580023D02*
X211896476Y-45033595D01*
X212289571Y-45033595D01*
X222629306Y-43195481D02*
X222417640Y-42893100D01*
X222266449Y-43195481D02*
X222266449Y-42560481D01*
X222508354Y-42560481D01*
X222568830Y-42590720D01*
X222599068Y-42620958D01*
X222629306Y-42681434D01*
X222629306Y-42772148D01*
X222599068Y-42832624D01*
X222568830Y-42862862D01*
X222508354Y-42893100D01*
X222266449Y-42893100D01*
X222840973Y-42560481D02*
X223234068Y-42560481D01*
X223022401Y-42802386D01*
X223113116Y-42802386D01*
X223173592Y-42832624D01*
X223203830Y-42862862D01*
X223234068Y-42923339D01*
X223234068Y-43074529D01*
X223203830Y-43135005D01*
X223173592Y-43165243D01*
X223113116Y-43195481D01*
X222931687Y-43195481D01*
X222871211Y-43165243D01*
X222840973Y-43135005D01*
X224829309Y-42959261D02*
X224829309Y-42324261D01*
X224980500Y-42324261D01*
X225071214Y-42354500D01*
X225131690Y-42414976D01*
X225161928Y-42475452D01*
X225192166Y-42596404D01*
X225192166Y-42687119D01*
X225161928Y-42808071D01*
X225131690Y-42868547D01*
X225071214Y-42929023D01*
X224980500Y-42959261D01*
X224829309Y-42959261D01*
X225796928Y-42959261D02*
X225434071Y-42959261D01*
X225615500Y-42959261D02*
X225615500Y-42324261D01*
X225555023Y-42414976D01*
X225494547Y-42475452D01*
X225434071Y-42505690D01*
X220590533Y-46540661D02*
X220590533Y-46994233D01*
X220560295Y-47084947D01*
X220499819Y-47145423D01*
X220409104Y-47175661D01*
X220348628Y-47175661D01*
X220832438Y-46540661D02*
X221225533Y-46540661D01*
X221013866Y-46782566D01*
X221104580Y-46782566D01*
X221165057Y-46812804D01*
X221195295Y-46843042D01*
X221225533Y-46903519D01*
X221225533Y-47054709D01*
X221195295Y-47115185D01*
X221165057Y-47145423D01*
X221104580Y-47175661D01*
X220923152Y-47175661D01*
X220862676Y-47145423D01*
X220832438Y-47115185D01*
X215855610Y-47952901D02*
X215855610Y-48466949D01*
X215885848Y-48527425D01*
X215916086Y-48557663D01*
X215976562Y-48587901D01*
X216097515Y-48587901D01*
X216157991Y-48557663D01*
X216188229Y-48527425D01*
X216218467Y-48466949D01*
X216218467Y-47952901D01*
X216853467Y-48587901D02*
X216490610Y-48587901D01*
X216672039Y-48587901D02*
X216672039Y-47952901D01*
X216611562Y-48043616D01*
X216551086Y-48104092D01*
X216490610Y-48134330D01*
X222038333Y-58903809D02*
X221869000Y-58661904D01*
X221748047Y-58903809D02*
X221748047Y-58395809D01*
X221941571Y-58395809D01*
X221989952Y-58420000D01*
X222014142Y-58444190D01*
X222038333Y-58492571D01*
X222038333Y-58565142D01*
X222014142Y-58613523D01*
X221989952Y-58637714D01*
X221941571Y-58661904D01*
X221748047Y-58661904D01*
X222231857Y-58444190D02*
X222256047Y-58420000D01*
X222304428Y-58395809D01*
X222425380Y-58395809D01*
X222473761Y-58420000D01*
X222497952Y-58444190D01*
X222522142Y-58492571D01*
X222522142Y-58540952D01*
X222497952Y-58613523D01*
X222207666Y-58903809D01*
X222522142Y-58903809D01*
X224578333Y-58776809D02*
X224409000Y-58534904D01*
X224288047Y-58776809D02*
X224288047Y-58268809D01*
X224481571Y-58268809D01*
X224529952Y-58293000D01*
X224554142Y-58317190D01*
X224578333Y-58365571D01*
X224578333Y-58438142D01*
X224554142Y-58486523D01*
X224529952Y-58510714D01*
X224481571Y-58534904D01*
X224288047Y-58534904D01*
X225062142Y-58776809D02*
X224771857Y-58776809D01*
X224917000Y-58776809D02*
X224917000Y-58268809D01*
X224868619Y-58341380D01*
X224820238Y-58389761D01*
X224771857Y-58413952D01*
X221593833Y-53500261D02*
X221593833Y-53953833D01*
X221563595Y-54044547D01*
X221503119Y-54105023D01*
X221412404Y-54135261D01*
X221351928Y-54135261D01*
X221896214Y-54135261D02*
X221896214Y-53500261D01*
X222138119Y-53500261D01*
X222198595Y-53530500D01*
X222228833Y-53560738D01*
X222259071Y-53621214D01*
X222259071Y-53711928D01*
X222228833Y-53772404D01*
X222198595Y-53802642D01*
X222138119Y-53832880D01*
X221896214Y-53832880D01*
X222863833Y-54135261D02*
X222500976Y-54135261D01*
X222682404Y-54135261D02*
X222682404Y-53500261D01*
X222621928Y-53590976D01*
X222561452Y-53651452D01*
X222500976Y-53681690D01*
D18*
X212267800Y-55106751D02*
X212267800Y-55542180D01*
X212238771Y-55629265D01*
X212180714Y-55687322D01*
X212093628Y-55716351D01*
X212035571Y-55716351D01*
X212529057Y-55164808D02*
X212558085Y-55135780D01*
X212616142Y-55106751D01*
X212761285Y-55106751D01*
X212819342Y-55135780D01*
X212848371Y-55164808D01*
X212877400Y-55222865D01*
X212877400Y-55280922D01*
X212848371Y-55368008D01*
X212500028Y-55716351D01*
X212877400Y-55716351D01*
D17*
X219887800Y-44243171D02*
X219887800Y-44678600D01*
X219858771Y-44765685D01*
X219800714Y-44823742D01*
X219713628Y-44852771D01*
X219655571Y-44852771D01*
X220497400Y-44852771D02*
X220149057Y-44852771D01*
X220323228Y-44852771D02*
X220323228Y-44243171D01*
X220265171Y-44330257D01*
X220207114Y-44388314D01*
X220149057Y-44417342D01*
X222619146Y-45484505D02*
X222588908Y-45514743D01*
X222498194Y-45544981D01*
X222437718Y-45544981D01*
X222347003Y-45514743D01*
X222286527Y-45454267D01*
X222256289Y-45393791D01*
X222226051Y-45272839D01*
X222226051Y-45182124D01*
X222256289Y-45061172D01*
X222286527Y-45000696D01*
X222347003Y-44940220D01*
X222437718Y-44909981D01*
X222498194Y-44909981D01*
X222588908Y-44940220D01*
X222619146Y-44970458D01*
X223223908Y-45544981D02*
X222861051Y-45544981D01*
X223042480Y-45544981D02*
X223042480Y-44909981D01*
X222982003Y-45000696D01*
X222921527Y-45061172D01*
X222861051Y-45091410D01*
M02*
