G04 #@! TF.GenerationSoftware,KiCad,Pcbnew,(5.1.5)-3*
G04 #@! TF.CreationDate,2020-03-24T20:07:28-04:00*
G04 #@! TF.ProjectId,ADS1100,41445331-3130-4302-9e6b-696361645f70,rev?*
G04 #@! TF.SameCoordinates,Original*
G04 #@! TF.FileFunction,Paste,Top*
G04 #@! TF.FilePolarity,Positive*
%FSLAX46Y46*%
G04 Gerber Fmt 4.6, Leading zero omitted, Abs format (unit mm)*
G04 Created by KiCad (PCBNEW (5.1.5)-3) date 2020-03-24 20:07:28*
%MOMM*%
%LPD*%
G04 APERTURE LIST*
%ADD10C,0.100000*%
%ADD11R,1.060000X0.650000*%
%ADD12R,1.198880X1.998980*%
%ADD13R,0.599440X1.348740*%
G04 APERTURE END LIST*
D10*
G36*
X221674958Y-42042710D02*
G01*
X221689276Y-42044834D01*
X221703317Y-42048351D01*
X221716946Y-42053228D01*
X221730031Y-42059417D01*
X221742447Y-42066858D01*
X221754073Y-42075481D01*
X221764798Y-42085202D01*
X221774519Y-42095927D01*
X221783142Y-42107553D01*
X221790583Y-42119969D01*
X221796772Y-42133054D01*
X221801649Y-42146683D01*
X221805166Y-42160724D01*
X221807290Y-42175042D01*
X221808000Y-42189500D01*
X221808000Y-42484500D01*
X221807290Y-42498958D01*
X221805166Y-42513276D01*
X221801649Y-42527317D01*
X221796772Y-42540946D01*
X221790583Y-42554031D01*
X221783142Y-42566447D01*
X221774519Y-42578073D01*
X221764798Y-42588798D01*
X221754073Y-42598519D01*
X221742447Y-42607142D01*
X221730031Y-42614583D01*
X221716946Y-42620772D01*
X221703317Y-42625649D01*
X221689276Y-42629166D01*
X221674958Y-42631290D01*
X221660500Y-42632000D01*
X221315500Y-42632000D01*
X221301042Y-42631290D01*
X221286724Y-42629166D01*
X221272683Y-42625649D01*
X221259054Y-42620772D01*
X221245969Y-42614583D01*
X221233553Y-42607142D01*
X221221927Y-42598519D01*
X221211202Y-42588798D01*
X221201481Y-42578073D01*
X221192858Y-42566447D01*
X221185417Y-42554031D01*
X221179228Y-42540946D01*
X221174351Y-42527317D01*
X221170834Y-42513276D01*
X221168710Y-42498958D01*
X221168000Y-42484500D01*
X221168000Y-42189500D01*
X221168710Y-42175042D01*
X221170834Y-42160724D01*
X221174351Y-42146683D01*
X221179228Y-42133054D01*
X221185417Y-42119969D01*
X221192858Y-42107553D01*
X221201481Y-42095927D01*
X221211202Y-42085202D01*
X221221927Y-42075481D01*
X221233553Y-42066858D01*
X221245969Y-42059417D01*
X221259054Y-42053228D01*
X221272683Y-42048351D01*
X221286724Y-42044834D01*
X221301042Y-42042710D01*
X221315500Y-42042000D01*
X221660500Y-42042000D01*
X221674958Y-42042710D01*
G37*
G36*
X221674958Y-43012710D02*
G01*
X221689276Y-43014834D01*
X221703317Y-43018351D01*
X221716946Y-43023228D01*
X221730031Y-43029417D01*
X221742447Y-43036858D01*
X221754073Y-43045481D01*
X221764798Y-43055202D01*
X221774519Y-43065927D01*
X221783142Y-43077553D01*
X221790583Y-43089969D01*
X221796772Y-43103054D01*
X221801649Y-43116683D01*
X221805166Y-43130724D01*
X221807290Y-43145042D01*
X221808000Y-43159500D01*
X221808000Y-43454500D01*
X221807290Y-43468958D01*
X221805166Y-43483276D01*
X221801649Y-43497317D01*
X221796772Y-43510946D01*
X221790583Y-43524031D01*
X221783142Y-43536447D01*
X221774519Y-43548073D01*
X221764798Y-43558798D01*
X221754073Y-43568519D01*
X221742447Y-43577142D01*
X221730031Y-43584583D01*
X221716946Y-43590772D01*
X221703317Y-43595649D01*
X221689276Y-43599166D01*
X221674958Y-43601290D01*
X221660500Y-43602000D01*
X221315500Y-43602000D01*
X221301042Y-43601290D01*
X221286724Y-43599166D01*
X221272683Y-43595649D01*
X221259054Y-43590772D01*
X221245969Y-43584583D01*
X221233553Y-43577142D01*
X221221927Y-43568519D01*
X221211202Y-43558798D01*
X221201481Y-43548073D01*
X221192858Y-43536447D01*
X221185417Y-43524031D01*
X221179228Y-43510946D01*
X221174351Y-43497317D01*
X221170834Y-43483276D01*
X221168710Y-43468958D01*
X221168000Y-43454500D01*
X221168000Y-43159500D01*
X221168710Y-43145042D01*
X221170834Y-43130724D01*
X221174351Y-43116683D01*
X221179228Y-43103054D01*
X221185417Y-43089969D01*
X221192858Y-43077553D01*
X221201481Y-43065927D01*
X221211202Y-43055202D01*
X221221927Y-43045481D01*
X221233553Y-43036858D01*
X221245969Y-43029417D01*
X221259054Y-43023228D01*
X221272683Y-43018351D01*
X221286724Y-43014834D01*
X221301042Y-43012710D01*
X221315500Y-43012000D01*
X221660500Y-43012000D01*
X221674958Y-43012710D01*
G37*
G36*
X224214958Y-41892710D02*
G01*
X224229276Y-41894834D01*
X224243317Y-41898351D01*
X224256946Y-41903228D01*
X224270031Y-41909417D01*
X224282447Y-41916858D01*
X224294073Y-41925481D01*
X224304798Y-41935202D01*
X224314519Y-41945927D01*
X224323142Y-41957553D01*
X224330583Y-41969969D01*
X224336772Y-41983054D01*
X224341649Y-41996683D01*
X224345166Y-42010724D01*
X224347290Y-42025042D01*
X224348000Y-42039500D01*
X224348000Y-42334500D01*
X224347290Y-42348958D01*
X224345166Y-42363276D01*
X224341649Y-42377317D01*
X224336772Y-42390946D01*
X224330583Y-42404031D01*
X224323142Y-42416447D01*
X224314519Y-42428073D01*
X224304798Y-42438798D01*
X224294073Y-42448519D01*
X224282447Y-42457142D01*
X224270031Y-42464583D01*
X224256946Y-42470772D01*
X224243317Y-42475649D01*
X224229276Y-42479166D01*
X224214958Y-42481290D01*
X224200500Y-42482000D01*
X223855500Y-42482000D01*
X223841042Y-42481290D01*
X223826724Y-42479166D01*
X223812683Y-42475649D01*
X223799054Y-42470772D01*
X223785969Y-42464583D01*
X223773553Y-42457142D01*
X223761927Y-42448519D01*
X223751202Y-42438798D01*
X223741481Y-42428073D01*
X223732858Y-42416447D01*
X223725417Y-42404031D01*
X223719228Y-42390946D01*
X223714351Y-42377317D01*
X223710834Y-42363276D01*
X223708710Y-42348958D01*
X223708000Y-42334500D01*
X223708000Y-42039500D01*
X223708710Y-42025042D01*
X223710834Y-42010724D01*
X223714351Y-41996683D01*
X223719228Y-41983054D01*
X223725417Y-41969969D01*
X223732858Y-41957553D01*
X223741481Y-41945927D01*
X223751202Y-41935202D01*
X223761927Y-41925481D01*
X223773553Y-41916858D01*
X223785969Y-41909417D01*
X223799054Y-41903228D01*
X223812683Y-41898351D01*
X223826724Y-41894834D01*
X223841042Y-41892710D01*
X223855500Y-41892000D01*
X224200500Y-41892000D01*
X224214958Y-41892710D01*
G37*
G36*
X224214958Y-42862710D02*
G01*
X224229276Y-42864834D01*
X224243317Y-42868351D01*
X224256946Y-42873228D01*
X224270031Y-42879417D01*
X224282447Y-42886858D01*
X224294073Y-42895481D01*
X224304798Y-42905202D01*
X224314519Y-42915927D01*
X224323142Y-42927553D01*
X224330583Y-42939969D01*
X224336772Y-42953054D01*
X224341649Y-42966683D01*
X224345166Y-42980724D01*
X224347290Y-42995042D01*
X224348000Y-43009500D01*
X224348000Y-43304500D01*
X224347290Y-43318958D01*
X224345166Y-43333276D01*
X224341649Y-43347317D01*
X224336772Y-43360946D01*
X224330583Y-43374031D01*
X224323142Y-43386447D01*
X224314519Y-43398073D01*
X224304798Y-43408798D01*
X224294073Y-43418519D01*
X224282447Y-43427142D01*
X224270031Y-43434583D01*
X224256946Y-43440772D01*
X224243317Y-43445649D01*
X224229276Y-43449166D01*
X224214958Y-43451290D01*
X224200500Y-43452000D01*
X223855500Y-43452000D01*
X223841042Y-43451290D01*
X223826724Y-43449166D01*
X223812683Y-43445649D01*
X223799054Y-43440772D01*
X223785969Y-43434583D01*
X223773553Y-43427142D01*
X223761927Y-43418519D01*
X223751202Y-43408798D01*
X223741481Y-43398073D01*
X223732858Y-43386447D01*
X223725417Y-43374031D01*
X223719228Y-43360946D01*
X223714351Y-43347317D01*
X223710834Y-43333276D01*
X223708710Y-43318958D01*
X223708000Y-43304500D01*
X223708000Y-43009500D01*
X223708710Y-42995042D01*
X223710834Y-42980724D01*
X223714351Y-42966683D01*
X223719228Y-42953054D01*
X223725417Y-42939969D01*
X223732858Y-42927553D01*
X223741481Y-42915927D01*
X223751202Y-42905202D01*
X223761927Y-42895481D01*
X223773553Y-42886858D01*
X223785969Y-42879417D01*
X223799054Y-42873228D01*
X223812683Y-42868351D01*
X223826724Y-42864834D01*
X223841042Y-42862710D01*
X223855500Y-42862000D01*
X224200500Y-42862000D01*
X224214958Y-42862710D01*
G37*
D11*
X217340505Y-50546000D03*
X217340505Y-49596000D03*
X217340505Y-51496000D03*
X215140505Y-51496000D03*
X215140505Y-50546000D03*
X215140505Y-49596000D03*
D10*
G36*
X222309958Y-57467710D02*
G01*
X222324276Y-57469834D01*
X222338317Y-57473351D01*
X222351946Y-57478228D01*
X222365031Y-57484417D01*
X222377447Y-57491858D01*
X222389073Y-57500481D01*
X222399798Y-57510202D01*
X222409519Y-57520927D01*
X222418142Y-57532553D01*
X222425583Y-57544969D01*
X222431772Y-57558054D01*
X222436649Y-57571683D01*
X222440166Y-57585724D01*
X222442290Y-57600042D01*
X222443000Y-57614500D01*
X222443000Y-57909500D01*
X222442290Y-57923958D01*
X222440166Y-57938276D01*
X222436649Y-57952317D01*
X222431772Y-57965946D01*
X222425583Y-57979031D01*
X222418142Y-57991447D01*
X222409519Y-58003073D01*
X222399798Y-58013798D01*
X222389073Y-58023519D01*
X222377447Y-58032142D01*
X222365031Y-58039583D01*
X222351946Y-58045772D01*
X222338317Y-58050649D01*
X222324276Y-58054166D01*
X222309958Y-58056290D01*
X222295500Y-58057000D01*
X221950500Y-58057000D01*
X221936042Y-58056290D01*
X221921724Y-58054166D01*
X221907683Y-58050649D01*
X221894054Y-58045772D01*
X221880969Y-58039583D01*
X221868553Y-58032142D01*
X221856927Y-58023519D01*
X221846202Y-58013798D01*
X221836481Y-58003073D01*
X221827858Y-57991447D01*
X221820417Y-57979031D01*
X221814228Y-57965946D01*
X221809351Y-57952317D01*
X221805834Y-57938276D01*
X221803710Y-57923958D01*
X221803000Y-57909500D01*
X221803000Y-57614500D01*
X221803710Y-57600042D01*
X221805834Y-57585724D01*
X221809351Y-57571683D01*
X221814228Y-57558054D01*
X221820417Y-57544969D01*
X221827858Y-57532553D01*
X221836481Y-57520927D01*
X221846202Y-57510202D01*
X221856927Y-57500481D01*
X221868553Y-57491858D01*
X221880969Y-57484417D01*
X221894054Y-57478228D01*
X221907683Y-57473351D01*
X221921724Y-57469834D01*
X221936042Y-57467710D01*
X221950500Y-57467000D01*
X222295500Y-57467000D01*
X222309958Y-57467710D01*
G37*
G36*
X222309958Y-56497710D02*
G01*
X222324276Y-56499834D01*
X222338317Y-56503351D01*
X222351946Y-56508228D01*
X222365031Y-56514417D01*
X222377447Y-56521858D01*
X222389073Y-56530481D01*
X222399798Y-56540202D01*
X222409519Y-56550927D01*
X222418142Y-56562553D01*
X222425583Y-56574969D01*
X222431772Y-56588054D01*
X222436649Y-56601683D01*
X222440166Y-56615724D01*
X222442290Y-56630042D01*
X222443000Y-56644500D01*
X222443000Y-56939500D01*
X222442290Y-56953958D01*
X222440166Y-56968276D01*
X222436649Y-56982317D01*
X222431772Y-56995946D01*
X222425583Y-57009031D01*
X222418142Y-57021447D01*
X222409519Y-57033073D01*
X222399798Y-57043798D01*
X222389073Y-57053519D01*
X222377447Y-57062142D01*
X222365031Y-57069583D01*
X222351946Y-57075772D01*
X222338317Y-57080649D01*
X222324276Y-57084166D01*
X222309958Y-57086290D01*
X222295500Y-57087000D01*
X221950500Y-57087000D01*
X221936042Y-57086290D01*
X221921724Y-57084166D01*
X221907683Y-57080649D01*
X221894054Y-57075772D01*
X221880969Y-57069583D01*
X221868553Y-57062142D01*
X221856927Y-57053519D01*
X221846202Y-57043798D01*
X221836481Y-57033073D01*
X221827858Y-57021447D01*
X221820417Y-57009031D01*
X221814228Y-56995946D01*
X221809351Y-56982317D01*
X221805834Y-56968276D01*
X221803710Y-56953958D01*
X221803000Y-56939500D01*
X221803000Y-56644500D01*
X221803710Y-56630042D01*
X221805834Y-56615724D01*
X221809351Y-56601683D01*
X221814228Y-56588054D01*
X221820417Y-56574969D01*
X221827858Y-56562553D01*
X221836481Y-56550927D01*
X221846202Y-56540202D01*
X221856927Y-56530481D01*
X221868553Y-56521858D01*
X221880969Y-56514417D01*
X221894054Y-56508228D01*
X221907683Y-56503351D01*
X221921724Y-56499834D01*
X221936042Y-56497710D01*
X221950500Y-56497000D01*
X222295500Y-56497000D01*
X222309958Y-56497710D01*
G37*
G36*
X224849958Y-57467710D02*
G01*
X224864276Y-57469834D01*
X224878317Y-57473351D01*
X224891946Y-57478228D01*
X224905031Y-57484417D01*
X224917447Y-57491858D01*
X224929073Y-57500481D01*
X224939798Y-57510202D01*
X224949519Y-57520927D01*
X224958142Y-57532553D01*
X224965583Y-57544969D01*
X224971772Y-57558054D01*
X224976649Y-57571683D01*
X224980166Y-57585724D01*
X224982290Y-57600042D01*
X224983000Y-57614500D01*
X224983000Y-57909500D01*
X224982290Y-57923958D01*
X224980166Y-57938276D01*
X224976649Y-57952317D01*
X224971772Y-57965946D01*
X224965583Y-57979031D01*
X224958142Y-57991447D01*
X224949519Y-58003073D01*
X224939798Y-58013798D01*
X224929073Y-58023519D01*
X224917447Y-58032142D01*
X224905031Y-58039583D01*
X224891946Y-58045772D01*
X224878317Y-58050649D01*
X224864276Y-58054166D01*
X224849958Y-58056290D01*
X224835500Y-58057000D01*
X224490500Y-58057000D01*
X224476042Y-58056290D01*
X224461724Y-58054166D01*
X224447683Y-58050649D01*
X224434054Y-58045772D01*
X224420969Y-58039583D01*
X224408553Y-58032142D01*
X224396927Y-58023519D01*
X224386202Y-58013798D01*
X224376481Y-58003073D01*
X224367858Y-57991447D01*
X224360417Y-57979031D01*
X224354228Y-57965946D01*
X224349351Y-57952317D01*
X224345834Y-57938276D01*
X224343710Y-57923958D01*
X224343000Y-57909500D01*
X224343000Y-57614500D01*
X224343710Y-57600042D01*
X224345834Y-57585724D01*
X224349351Y-57571683D01*
X224354228Y-57558054D01*
X224360417Y-57544969D01*
X224367858Y-57532553D01*
X224376481Y-57520927D01*
X224386202Y-57510202D01*
X224396927Y-57500481D01*
X224408553Y-57491858D01*
X224420969Y-57484417D01*
X224434054Y-57478228D01*
X224447683Y-57473351D01*
X224461724Y-57469834D01*
X224476042Y-57467710D01*
X224490500Y-57467000D01*
X224835500Y-57467000D01*
X224849958Y-57467710D01*
G37*
G36*
X224849958Y-56497710D02*
G01*
X224864276Y-56499834D01*
X224878317Y-56503351D01*
X224891946Y-56508228D01*
X224905031Y-56514417D01*
X224917447Y-56521858D01*
X224929073Y-56530481D01*
X224939798Y-56540202D01*
X224949519Y-56550927D01*
X224958142Y-56562553D01*
X224965583Y-56574969D01*
X224971772Y-56588054D01*
X224976649Y-56601683D01*
X224980166Y-56615724D01*
X224982290Y-56630042D01*
X224983000Y-56644500D01*
X224983000Y-56939500D01*
X224982290Y-56953958D01*
X224980166Y-56968276D01*
X224976649Y-56982317D01*
X224971772Y-56995946D01*
X224965583Y-57009031D01*
X224958142Y-57021447D01*
X224949519Y-57033073D01*
X224939798Y-57043798D01*
X224929073Y-57053519D01*
X224917447Y-57062142D01*
X224905031Y-57069583D01*
X224891946Y-57075772D01*
X224878317Y-57080649D01*
X224864276Y-57084166D01*
X224849958Y-57086290D01*
X224835500Y-57087000D01*
X224490500Y-57087000D01*
X224476042Y-57086290D01*
X224461724Y-57084166D01*
X224447683Y-57080649D01*
X224434054Y-57075772D01*
X224420969Y-57069583D01*
X224408553Y-57062142D01*
X224396927Y-57053519D01*
X224386202Y-57043798D01*
X224376481Y-57033073D01*
X224367858Y-57021447D01*
X224360417Y-57009031D01*
X224354228Y-56995946D01*
X224349351Y-56982317D01*
X224345834Y-56968276D01*
X224343710Y-56953958D01*
X224343000Y-56939500D01*
X224343000Y-56644500D01*
X224343710Y-56630042D01*
X224345834Y-56615724D01*
X224349351Y-56601683D01*
X224354228Y-56588054D01*
X224360417Y-56574969D01*
X224367858Y-56562553D01*
X224376481Y-56550927D01*
X224386202Y-56540202D01*
X224396927Y-56530481D01*
X224408553Y-56521858D01*
X224420969Y-56514417D01*
X224434054Y-56508228D01*
X224447683Y-56503351D01*
X224461724Y-56499834D01*
X224476042Y-56497710D01*
X224490500Y-56497000D01*
X224835500Y-56497000D01*
X224849958Y-56497710D01*
G37*
D12*
X213441425Y-58282840D03*
X219039585Y-58282840D03*
D13*
X217739105Y-54610000D03*
X216738345Y-54610000D03*
X215742665Y-54610000D03*
X214741905Y-54610000D03*
D12*
X219207080Y-42301160D03*
X213608920Y-42301160D03*
D13*
X214909400Y-45974000D03*
X215910160Y-45974000D03*
X216905840Y-45974000D03*
X217906600Y-45974000D03*
D10*
G36*
X221674958Y-45402710D02*
G01*
X221689276Y-45404834D01*
X221703317Y-45408351D01*
X221716946Y-45413228D01*
X221730031Y-45419417D01*
X221742447Y-45426858D01*
X221754073Y-45435481D01*
X221764798Y-45445202D01*
X221774519Y-45455927D01*
X221783142Y-45467553D01*
X221790583Y-45479969D01*
X221796772Y-45493054D01*
X221801649Y-45506683D01*
X221805166Y-45520724D01*
X221807290Y-45535042D01*
X221808000Y-45549500D01*
X221808000Y-45844500D01*
X221807290Y-45858958D01*
X221805166Y-45873276D01*
X221801649Y-45887317D01*
X221796772Y-45900946D01*
X221790583Y-45914031D01*
X221783142Y-45926447D01*
X221774519Y-45938073D01*
X221764798Y-45948798D01*
X221754073Y-45958519D01*
X221742447Y-45967142D01*
X221730031Y-45974583D01*
X221716946Y-45980772D01*
X221703317Y-45985649D01*
X221689276Y-45989166D01*
X221674958Y-45991290D01*
X221660500Y-45992000D01*
X221315500Y-45992000D01*
X221301042Y-45991290D01*
X221286724Y-45989166D01*
X221272683Y-45985649D01*
X221259054Y-45980772D01*
X221245969Y-45974583D01*
X221233553Y-45967142D01*
X221221927Y-45958519D01*
X221211202Y-45948798D01*
X221201481Y-45938073D01*
X221192858Y-45926447D01*
X221185417Y-45914031D01*
X221179228Y-45900946D01*
X221174351Y-45887317D01*
X221170834Y-45873276D01*
X221168710Y-45858958D01*
X221168000Y-45844500D01*
X221168000Y-45549500D01*
X221168710Y-45535042D01*
X221170834Y-45520724D01*
X221174351Y-45506683D01*
X221179228Y-45493054D01*
X221185417Y-45479969D01*
X221192858Y-45467553D01*
X221201481Y-45455927D01*
X221211202Y-45445202D01*
X221221927Y-45435481D01*
X221233553Y-45426858D01*
X221245969Y-45419417D01*
X221259054Y-45413228D01*
X221272683Y-45408351D01*
X221286724Y-45404834D01*
X221301042Y-45402710D01*
X221315500Y-45402000D01*
X221660500Y-45402000D01*
X221674958Y-45402710D01*
G37*
G36*
X221674958Y-44432710D02*
G01*
X221689276Y-44434834D01*
X221703317Y-44438351D01*
X221716946Y-44443228D01*
X221730031Y-44449417D01*
X221742447Y-44456858D01*
X221754073Y-44465481D01*
X221764798Y-44475202D01*
X221774519Y-44485927D01*
X221783142Y-44497553D01*
X221790583Y-44509969D01*
X221796772Y-44523054D01*
X221801649Y-44536683D01*
X221805166Y-44550724D01*
X221807290Y-44565042D01*
X221808000Y-44579500D01*
X221808000Y-44874500D01*
X221807290Y-44888958D01*
X221805166Y-44903276D01*
X221801649Y-44917317D01*
X221796772Y-44930946D01*
X221790583Y-44944031D01*
X221783142Y-44956447D01*
X221774519Y-44968073D01*
X221764798Y-44978798D01*
X221754073Y-44988519D01*
X221742447Y-44997142D01*
X221730031Y-45004583D01*
X221716946Y-45010772D01*
X221703317Y-45015649D01*
X221689276Y-45019166D01*
X221674958Y-45021290D01*
X221660500Y-45022000D01*
X221315500Y-45022000D01*
X221301042Y-45021290D01*
X221286724Y-45019166D01*
X221272683Y-45015649D01*
X221259054Y-45010772D01*
X221245969Y-45004583D01*
X221233553Y-44997142D01*
X221221927Y-44988519D01*
X221211202Y-44978798D01*
X221201481Y-44968073D01*
X221192858Y-44956447D01*
X221185417Y-44944031D01*
X221179228Y-44930946D01*
X221174351Y-44917317D01*
X221170834Y-44903276D01*
X221168710Y-44888958D01*
X221168000Y-44874500D01*
X221168000Y-44579500D01*
X221168710Y-44565042D01*
X221170834Y-44550724D01*
X221174351Y-44536683D01*
X221179228Y-44523054D01*
X221185417Y-44509969D01*
X221192858Y-44497553D01*
X221201481Y-44485927D01*
X221211202Y-44475202D01*
X221221927Y-44465481D01*
X221233553Y-44456858D01*
X221245969Y-44449417D01*
X221259054Y-44443228D01*
X221272683Y-44438351D01*
X221286724Y-44434834D01*
X221301042Y-44432710D01*
X221315500Y-44432000D01*
X221660500Y-44432000D01*
X221674958Y-44432710D01*
G37*
M02*
