G04 #@! TF.GenerationSoftware,KiCad,Pcbnew,(5.1.5)-3*
G04 #@! TF.CreationDate,2020-03-24T20:07:28-04:00*
G04 #@! TF.ProjectId,ADS1100,41445331-3130-4302-9e6b-696361645f70,rev?*
G04 #@! TF.SameCoordinates,Original*
G04 #@! TF.FileFunction,Copper,L2,Bot*
G04 #@! TF.FilePolarity,Positive*
%FSLAX46Y46*%
G04 Gerber Fmt 4.6, Leading zero omitted, Abs format (unit mm)*
G04 Created by KiCad (PCBNEW (5.1.5)-3) date 2020-03-24 20:07:28*
%MOMM*%
%LPD*%
G04 APERTURE LIST*
%ADD10O,1.700000X1.700000*%
%ADD11R,1.700000X1.700000*%
%ADD12C,2.200000*%
%ADD13R,2.200000X2.200000*%
%ADD14C,0.800000*%
%ADD15C,0.381000*%
%ADD16C,0.508000*%
%ADD17C,0.254000*%
G04 APERTURE END LIST*
D10*
X210058000Y-53848000D03*
X210058000Y-51308000D03*
X210058000Y-48768000D03*
D11*
X210058000Y-46228000D03*
D12*
X224917000Y-48514000D03*
D13*
X224917000Y-51054000D03*
D14*
X220154500Y-55054500D03*
X213172000Y-51496000D03*
X219202000Y-51816000D03*
X213741000Y-48768000D03*
X214336999Y-52998001D03*
X220218000Y-47371000D03*
X217932000Y-52959000D03*
X214503000Y-56007000D03*
X223160500Y-44344500D03*
X213741000Y-50546000D03*
D15*
X219588815Y-55054500D02*
X219271315Y-54737000D01*
X220154500Y-55054500D02*
X219588815Y-55054500D01*
X213172000Y-52061685D02*
X213172000Y-51496000D01*
X213172000Y-53002944D02*
X213172000Y-52061685D01*
X214906056Y-54737000D02*
X213172000Y-53002944D01*
X219271315Y-54737000D02*
X214906056Y-54737000D01*
X216789000Y-51816000D02*
X213741000Y-48768000D01*
X219202000Y-51816000D02*
X216789000Y-51816000D01*
D16*
X217892999Y-52998001D02*
X217932000Y-52959000D01*
X214336999Y-52998001D02*
X217892999Y-52998001D01*
X217932000Y-52959000D02*
X220091000Y-52959000D01*
X220218000Y-52832000D02*
X220218000Y-47371000D01*
X220091000Y-52959000D02*
X220218000Y-52832000D01*
D17*
G36*
X227788000Y-47371625D02*
G01*
X227573712Y-47329000D01*
X227340288Y-47329000D01*
X227111348Y-47374539D01*
X226895692Y-47463866D01*
X226701606Y-47593550D01*
X226536550Y-47758606D01*
X226502910Y-47808952D01*
X226454537Y-47692169D01*
X226264663Y-47408002D01*
X226022998Y-47166337D01*
X225738831Y-46976463D01*
X225423081Y-46845675D01*
X225087883Y-46779000D01*
X224746117Y-46779000D01*
X224410919Y-46845675D01*
X224095169Y-46976463D01*
X223811002Y-47166337D01*
X223569337Y-47408002D01*
X223379463Y-47692169D01*
X223248675Y-48007919D01*
X223182000Y-48343117D01*
X223182000Y-48684883D01*
X223248675Y-49020081D01*
X223379463Y-49335831D01*
X223446690Y-49436443D01*
X223365815Y-49502815D01*
X223286463Y-49599506D01*
X223227498Y-49709820D01*
X223191188Y-49829518D01*
X223178928Y-49954000D01*
X223178928Y-52154000D01*
X223191188Y-52278482D01*
X223227498Y-52398180D01*
X223286463Y-52508494D01*
X223365815Y-52605185D01*
X223462506Y-52684537D01*
X223572820Y-52743502D01*
X223692518Y-52779812D01*
X223817000Y-52792072D01*
X226017000Y-52792072D01*
X226141482Y-52779812D01*
X226261180Y-52743502D01*
X226371494Y-52684537D01*
X226468185Y-52605185D01*
X226547537Y-52508494D01*
X226606502Y-52398180D01*
X226642812Y-52278482D01*
X226655072Y-52154000D01*
X226655072Y-51927916D01*
X226701606Y-51974450D01*
X226895692Y-52104134D01*
X227111348Y-52193461D01*
X227340288Y-52239000D01*
X227573712Y-52239000D01*
X227788001Y-52196375D01*
X227788001Y-58878000D01*
X208838000Y-58878000D01*
X208838000Y-54695070D01*
X208904525Y-54794632D01*
X209111368Y-55001475D01*
X209354589Y-55163990D01*
X209624842Y-55275932D01*
X209911740Y-55333000D01*
X210204260Y-55333000D01*
X210491158Y-55275932D01*
X210761411Y-55163990D01*
X211004632Y-55001475D01*
X211211475Y-54794632D01*
X211373990Y-54551411D01*
X211485932Y-54281158D01*
X211543000Y-53994260D01*
X211543000Y-53701740D01*
X211485932Y-53414842D01*
X211373990Y-53144589D01*
X211211475Y-52901368D01*
X211004632Y-52694525D01*
X210761411Y-52532010D01*
X210491158Y-52420068D01*
X210204260Y-52363000D01*
X209911740Y-52363000D01*
X209624842Y-52420068D01*
X209354589Y-52532010D01*
X209111368Y-52694525D01*
X208904525Y-52901368D01*
X208838000Y-53000930D01*
X208838000Y-51394061D01*
X212137000Y-51394061D01*
X212137000Y-51597939D01*
X212176774Y-51797898D01*
X212254795Y-51986256D01*
X212346501Y-52123504D01*
X212346500Y-52962393D01*
X212342506Y-53002944D01*
X212346500Y-53043494D01*
X212346500Y-53043496D01*
X212358444Y-53164769D01*
X212399435Y-53299899D01*
X212405647Y-53320377D01*
X212482301Y-53463786D01*
X212502384Y-53488257D01*
X212585459Y-53589485D01*
X212616966Y-53615342D01*
X214293667Y-55292045D01*
X214319515Y-55323541D01*
X214351011Y-55349389D01*
X214351014Y-55349392D01*
X214445213Y-55426699D01*
X214588622Y-55503353D01*
X214744230Y-55550556D01*
X214865503Y-55562500D01*
X214865506Y-55562500D01*
X214906056Y-55566494D01*
X214946606Y-55562500D01*
X218929382Y-55562500D01*
X218976421Y-55609539D01*
X219002274Y-55641041D01*
X219127973Y-55744199D01*
X219271381Y-55820853D01*
X219426989Y-55868056D01*
X219523321Y-55877544D01*
X219664244Y-55971705D01*
X219852602Y-56049726D01*
X220052561Y-56089500D01*
X220256439Y-56089500D01*
X220456398Y-56049726D01*
X220644756Y-55971705D01*
X220814274Y-55858437D01*
X220958437Y-55714274D01*
X221071705Y-55544756D01*
X221149726Y-55356398D01*
X221189500Y-55156439D01*
X221189500Y-54952561D01*
X221149726Y-54752602D01*
X221071705Y-54564244D01*
X220958437Y-54394726D01*
X220814274Y-54250563D01*
X220644756Y-54137295D01*
X220456398Y-54059274D01*
X220256439Y-54019500D01*
X220052561Y-54019500D01*
X219852602Y-54059274D01*
X219782253Y-54088414D01*
X219732157Y-54047301D01*
X219588749Y-53970647D01*
X219433141Y-53923444D01*
X219311868Y-53911500D01*
X219311865Y-53911500D01*
X219271315Y-53907506D01*
X219230765Y-53911500D01*
X218337047Y-53911500D01*
X218422256Y-53876205D01*
X218464468Y-53848000D01*
X220047340Y-53848000D01*
X220091000Y-53852300D01*
X220134660Y-53848000D01*
X220134667Y-53848000D01*
X220265274Y-53835136D01*
X220432851Y-53784303D01*
X220587291Y-53701753D01*
X220722659Y-53590659D01*
X220750499Y-53556736D01*
X220815737Y-53491498D01*
X220849659Y-53463659D01*
X220960753Y-53328291D01*
X221043303Y-53173851D01*
X221094136Y-53006274D01*
X221107000Y-52875667D01*
X221107000Y-52875661D01*
X221111300Y-52832001D01*
X221107000Y-52788341D01*
X221107000Y-47903468D01*
X221135205Y-47861256D01*
X221213226Y-47672898D01*
X221253000Y-47472939D01*
X221253000Y-47269061D01*
X221213226Y-47069102D01*
X221135205Y-46880744D01*
X221021937Y-46711226D01*
X220877774Y-46567063D01*
X220708256Y-46453795D01*
X220519898Y-46375774D01*
X220319939Y-46336000D01*
X220116061Y-46336000D01*
X219916102Y-46375774D01*
X219727744Y-46453795D01*
X219558226Y-46567063D01*
X219414063Y-46711226D01*
X219300795Y-46880744D01*
X219222774Y-47069102D01*
X219183000Y-47269061D01*
X219183000Y-47472939D01*
X219222774Y-47672898D01*
X219300795Y-47861256D01*
X219329001Y-47903469D01*
X219329000Y-50785985D01*
X219303939Y-50781000D01*
X219100061Y-50781000D01*
X218900102Y-50820774D01*
X218711744Y-50898795D01*
X218574497Y-50990500D01*
X217130933Y-50990500D01*
X214768429Y-48627996D01*
X214736226Y-48466102D01*
X214658205Y-48277744D01*
X214544937Y-48108226D01*
X214400774Y-47964063D01*
X214231256Y-47850795D01*
X214042898Y-47772774D01*
X213842939Y-47733000D01*
X213639061Y-47733000D01*
X213439102Y-47772774D01*
X213250744Y-47850795D01*
X213081226Y-47964063D01*
X212937063Y-48108226D01*
X212823795Y-48277744D01*
X212745774Y-48466102D01*
X212706000Y-48666061D01*
X212706000Y-48869939D01*
X212745774Y-49069898D01*
X212823795Y-49258256D01*
X212937063Y-49427774D01*
X213081226Y-49571937D01*
X213250744Y-49685205D01*
X213439102Y-49763226D01*
X213600996Y-49795429D01*
X215914568Y-52109001D01*
X214869467Y-52109001D01*
X214827255Y-52080796D01*
X214638897Y-52002775D01*
X214438938Y-51963001D01*
X214235060Y-51963001D01*
X214084769Y-51992896D01*
X214089205Y-51986256D01*
X214167226Y-51797898D01*
X214207000Y-51597939D01*
X214207000Y-51394061D01*
X214167226Y-51194102D01*
X214089205Y-51005744D01*
X213975937Y-50836226D01*
X213831774Y-50692063D01*
X213662256Y-50578795D01*
X213473898Y-50500774D01*
X213273939Y-50461000D01*
X213070061Y-50461000D01*
X212870102Y-50500774D01*
X212681744Y-50578795D01*
X212512226Y-50692063D01*
X212368063Y-50836226D01*
X212254795Y-51005744D01*
X212176774Y-51194102D01*
X212137000Y-51394061D01*
X208838000Y-51394061D01*
X208838000Y-49615070D01*
X208904525Y-49714632D01*
X209111368Y-49921475D01*
X209354589Y-50083990D01*
X209624842Y-50195932D01*
X209911740Y-50253000D01*
X210204260Y-50253000D01*
X210491158Y-50195932D01*
X210761411Y-50083990D01*
X211004632Y-49921475D01*
X211211475Y-49714632D01*
X211373990Y-49471411D01*
X211485932Y-49201158D01*
X211543000Y-48914260D01*
X211543000Y-48621740D01*
X211485932Y-48334842D01*
X211373990Y-48064589D01*
X211211475Y-47821368D01*
X211079620Y-47689513D01*
X211152180Y-47667502D01*
X211262494Y-47608537D01*
X211359185Y-47529185D01*
X211438537Y-47432494D01*
X211497502Y-47322180D01*
X211533812Y-47202482D01*
X211546072Y-47078000D01*
X211546072Y-45378000D01*
X211533812Y-45253518D01*
X211497502Y-45133820D01*
X211438537Y-45023506D01*
X211359185Y-44926815D01*
X211262494Y-44847463D01*
X211152180Y-44788498D01*
X211032482Y-44752188D01*
X210908000Y-44739928D01*
X209208000Y-44739928D01*
X209083518Y-44752188D01*
X208963820Y-44788498D01*
X208853506Y-44847463D01*
X208838000Y-44860188D01*
X208838000Y-41579000D01*
X227788000Y-41579000D01*
X227788000Y-47371625D01*
G37*
X227788000Y-47371625D02*
X227573712Y-47329000D01*
X227340288Y-47329000D01*
X227111348Y-47374539D01*
X226895692Y-47463866D01*
X226701606Y-47593550D01*
X226536550Y-47758606D01*
X226502910Y-47808952D01*
X226454537Y-47692169D01*
X226264663Y-47408002D01*
X226022998Y-47166337D01*
X225738831Y-46976463D01*
X225423081Y-46845675D01*
X225087883Y-46779000D01*
X224746117Y-46779000D01*
X224410919Y-46845675D01*
X224095169Y-46976463D01*
X223811002Y-47166337D01*
X223569337Y-47408002D01*
X223379463Y-47692169D01*
X223248675Y-48007919D01*
X223182000Y-48343117D01*
X223182000Y-48684883D01*
X223248675Y-49020081D01*
X223379463Y-49335831D01*
X223446690Y-49436443D01*
X223365815Y-49502815D01*
X223286463Y-49599506D01*
X223227498Y-49709820D01*
X223191188Y-49829518D01*
X223178928Y-49954000D01*
X223178928Y-52154000D01*
X223191188Y-52278482D01*
X223227498Y-52398180D01*
X223286463Y-52508494D01*
X223365815Y-52605185D01*
X223462506Y-52684537D01*
X223572820Y-52743502D01*
X223692518Y-52779812D01*
X223817000Y-52792072D01*
X226017000Y-52792072D01*
X226141482Y-52779812D01*
X226261180Y-52743502D01*
X226371494Y-52684537D01*
X226468185Y-52605185D01*
X226547537Y-52508494D01*
X226606502Y-52398180D01*
X226642812Y-52278482D01*
X226655072Y-52154000D01*
X226655072Y-51927916D01*
X226701606Y-51974450D01*
X226895692Y-52104134D01*
X227111348Y-52193461D01*
X227340288Y-52239000D01*
X227573712Y-52239000D01*
X227788001Y-52196375D01*
X227788001Y-58878000D01*
X208838000Y-58878000D01*
X208838000Y-54695070D01*
X208904525Y-54794632D01*
X209111368Y-55001475D01*
X209354589Y-55163990D01*
X209624842Y-55275932D01*
X209911740Y-55333000D01*
X210204260Y-55333000D01*
X210491158Y-55275932D01*
X210761411Y-55163990D01*
X211004632Y-55001475D01*
X211211475Y-54794632D01*
X211373990Y-54551411D01*
X211485932Y-54281158D01*
X211543000Y-53994260D01*
X211543000Y-53701740D01*
X211485932Y-53414842D01*
X211373990Y-53144589D01*
X211211475Y-52901368D01*
X211004632Y-52694525D01*
X210761411Y-52532010D01*
X210491158Y-52420068D01*
X210204260Y-52363000D01*
X209911740Y-52363000D01*
X209624842Y-52420068D01*
X209354589Y-52532010D01*
X209111368Y-52694525D01*
X208904525Y-52901368D01*
X208838000Y-53000930D01*
X208838000Y-51394061D01*
X212137000Y-51394061D01*
X212137000Y-51597939D01*
X212176774Y-51797898D01*
X212254795Y-51986256D01*
X212346501Y-52123504D01*
X212346500Y-52962393D01*
X212342506Y-53002944D01*
X212346500Y-53043494D01*
X212346500Y-53043496D01*
X212358444Y-53164769D01*
X212399435Y-53299899D01*
X212405647Y-53320377D01*
X212482301Y-53463786D01*
X212502384Y-53488257D01*
X212585459Y-53589485D01*
X212616966Y-53615342D01*
X214293667Y-55292045D01*
X214319515Y-55323541D01*
X214351011Y-55349389D01*
X214351014Y-55349392D01*
X214445213Y-55426699D01*
X214588622Y-55503353D01*
X214744230Y-55550556D01*
X214865503Y-55562500D01*
X214865506Y-55562500D01*
X214906056Y-55566494D01*
X214946606Y-55562500D01*
X218929382Y-55562500D01*
X218976421Y-55609539D01*
X219002274Y-55641041D01*
X219127973Y-55744199D01*
X219271381Y-55820853D01*
X219426989Y-55868056D01*
X219523321Y-55877544D01*
X219664244Y-55971705D01*
X219852602Y-56049726D01*
X220052561Y-56089500D01*
X220256439Y-56089500D01*
X220456398Y-56049726D01*
X220644756Y-55971705D01*
X220814274Y-55858437D01*
X220958437Y-55714274D01*
X221071705Y-55544756D01*
X221149726Y-55356398D01*
X221189500Y-55156439D01*
X221189500Y-54952561D01*
X221149726Y-54752602D01*
X221071705Y-54564244D01*
X220958437Y-54394726D01*
X220814274Y-54250563D01*
X220644756Y-54137295D01*
X220456398Y-54059274D01*
X220256439Y-54019500D01*
X220052561Y-54019500D01*
X219852602Y-54059274D01*
X219782253Y-54088414D01*
X219732157Y-54047301D01*
X219588749Y-53970647D01*
X219433141Y-53923444D01*
X219311868Y-53911500D01*
X219311865Y-53911500D01*
X219271315Y-53907506D01*
X219230765Y-53911500D01*
X218337047Y-53911500D01*
X218422256Y-53876205D01*
X218464468Y-53848000D01*
X220047340Y-53848000D01*
X220091000Y-53852300D01*
X220134660Y-53848000D01*
X220134667Y-53848000D01*
X220265274Y-53835136D01*
X220432851Y-53784303D01*
X220587291Y-53701753D01*
X220722659Y-53590659D01*
X220750499Y-53556736D01*
X220815737Y-53491498D01*
X220849659Y-53463659D01*
X220960753Y-53328291D01*
X221043303Y-53173851D01*
X221094136Y-53006274D01*
X221107000Y-52875667D01*
X221107000Y-52875661D01*
X221111300Y-52832001D01*
X221107000Y-52788341D01*
X221107000Y-47903468D01*
X221135205Y-47861256D01*
X221213226Y-47672898D01*
X221253000Y-47472939D01*
X221253000Y-47269061D01*
X221213226Y-47069102D01*
X221135205Y-46880744D01*
X221021937Y-46711226D01*
X220877774Y-46567063D01*
X220708256Y-46453795D01*
X220519898Y-46375774D01*
X220319939Y-46336000D01*
X220116061Y-46336000D01*
X219916102Y-46375774D01*
X219727744Y-46453795D01*
X219558226Y-46567063D01*
X219414063Y-46711226D01*
X219300795Y-46880744D01*
X219222774Y-47069102D01*
X219183000Y-47269061D01*
X219183000Y-47472939D01*
X219222774Y-47672898D01*
X219300795Y-47861256D01*
X219329001Y-47903469D01*
X219329000Y-50785985D01*
X219303939Y-50781000D01*
X219100061Y-50781000D01*
X218900102Y-50820774D01*
X218711744Y-50898795D01*
X218574497Y-50990500D01*
X217130933Y-50990500D01*
X214768429Y-48627996D01*
X214736226Y-48466102D01*
X214658205Y-48277744D01*
X214544937Y-48108226D01*
X214400774Y-47964063D01*
X214231256Y-47850795D01*
X214042898Y-47772774D01*
X213842939Y-47733000D01*
X213639061Y-47733000D01*
X213439102Y-47772774D01*
X213250744Y-47850795D01*
X213081226Y-47964063D01*
X212937063Y-48108226D01*
X212823795Y-48277744D01*
X212745774Y-48466102D01*
X212706000Y-48666061D01*
X212706000Y-48869939D01*
X212745774Y-49069898D01*
X212823795Y-49258256D01*
X212937063Y-49427774D01*
X213081226Y-49571937D01*
X213250744Y-49685205D01*
X213439102Y-49763226D01*
X213600996Y-49795429D01*
X215914568Y-52109001D01*
X214869467Y-52109001D01*
X214827255Y-52080796D01*
X214638897Y-52002775D01*
X214438938Y-51963001D01*
X214235060Y-51963001D01*
X214084769Y-51992896D01*
X214089205Y-51986256D01*
X214167226Y-51797898D01*
X214207000Y-51597939D01*
X214207000Y-51394061D01*
X214167226Y-51194102D01*
X214089205Y-51005744D01*
X213975937Y-50836226D01*
X213831774Y-50692063D01*
X213662256Y-50578795D01*
X213473898Y-50500774D01*
X213273939Y-50461000D01*
X213070061Y-50461000D01*
X212870102Y-50500774D01*
X212681744Y-50578795D01*
X212512226Y-50692063D01*
X212368063Y-50836226D01*
X212254795Y-51005744D01*
X212176774Y-51194102D01*
X212137000Y-51394061D01*
X208838000Y-51394061D01*
X208838000Y-49615070D01*
X208904525Y-49714632D01*
X209111368Y-49921475D01*
X209354589Y-50083990D01*
X209624842Y-50195932D01*
X209911740Y-50253000D01*
X210204260Y-50253000D01*
X210491158Y-50195932D01*
X210761411Y-50083990D01*
X211004632Y-49921475D01*
X211211475Y-49714632D01*
X211373990Y-49471411D01*
X211485932Y-49201158D01*
X211543000Y-48914260D01*
X211543000Y-48621740D01*
X211485932Y-48334842D01*
X211373990Y-48064589D01*
X211211475Y-47821368D01*
X211079620Y-47689513D01*
X211152180Y-47667502D01*
X211262494Y-47608537D01*
X211359185Y-47529185D01*
X211438537Y-47432494D01*
X211497502Y-47322180D01*
X211533812Y-47202482D01*
X211546072Y-47078000D01*
X211546072Y-45378000D01*
X211533812Y-45253518D01*
X211497502Y-45133820D01*
X211438537Y-45023506D01*
X211359185Y-44926815D01*
X211262494Y-44847463D01*
X211152180Y-44788498D01*
X211032482Y-44752188D01*
X210908000Y-44739928D01*
X209208000Y-44739928D01*
X209083518Y-44752188D01*
X208963820Y-44788498D01*
X208853506Y-44847463D01*
X208838000Y-44860188D01*
X208838000Y-41579000D01*
X227788000Y-41579000D01*
X227788000Y-47371625D01*
M02*
